<svg width="100" height="100" viewBox="0 0 100 100" fill="none" xmlns="http://www.w3.org/2000/svg">
<g clip-path="url(#clip0_81_418)">
<path fill-rule="evenodd" clip-rule="evenodd" d="M0 0.622314H100V99.9601H0V0.622314Z" fill="white"/>
<path fill-rule="evenodd" clip-rule="evenodd" d="M61.6051 13.4389C62.2535 14.7427 62.5544 16.1702 62.6737 17.6956L62.7412 29.497L55.3849 29.5279L55.333 17.7266C55.1307 16.0053 53.813 14.7066 52.2203 14.1552C50.6951 13.6811 49.0298 14.2325 47.9352 15.2014C46.8458 16.2991 46.1662 17.7523 46.6071 19.4272C46.991 21.0815 48.3814 22.3595 50.0259 22.7306C51.3695 22.9418 52.708 22.6636 53.6418 21.8905L53.6729 29.5795C53.1645 29.899 52.6457 29.8629 52.0439 29.9299C47.0429 30.4865 42.8045 27.9355 40.6515 24.0344C38.5038 20.4837 38.7787 15.0725 41.3467 11.8001C43.8265 8.26485 48.4021 6.31685 52.9259 7.04348C56.6559 7.65159 59.9968 10.0016 61.6154 13.4337L61.6051 13.4389Z" fill="#231F20"/>
<path fill-rule="evenodd" clip-rule="evenodd" d="M29.311 7.42993C29.311 7.49693 29.228 7.46085 29.311 7.49693C29.9906 7.35263 30.5302 7.72368 31.0334 7.86797C34.5663 8.90382 37.0253 11.9443 37.7516 15.5981C38.1874 18.515 37.4196 21.3391 35.6765 23.5138C35.9514 24.1168 36.5221 24.7043 36.823 25.3381C38.1147 27.8015 38.094 31.3625 37.0045 33.9444C35.8114 36.7736 32.6624 39.2267 29.2125 39.7523L14.723 39.8142C14.7126 37.3611 14.7022 34.8823 14.6918 32.62L28.4551 32.5633C29.2488 32.486 29.8506 31.6923 30.2863 31.0791C30.525 30.4504 30.6443 29.631 30.3901 28.9765C30.0633 28.0746 29.0983 27.3634 28.1853 27.2295L14.5569 27.281L14.531 20.1022L28.5536 20.0456C29.4771 19.8033 30.2293 18.9891 30.4472 18.0666C30.6495 17.1596 30.3901 16.2114 29.8869 15.5775C29.4822 15.0261 28.9116 14.6705 28.2216 14.6447L14.5621 14.7014L14.531 7.50208H14.4999L29.3162 7.43509L29.311 7.42993Z" fill="#231F20"/>
<path fill-rule="evenodd" clip-rule="evenodd" d="M71.9341 7.12594L71.9911 20.4631C72.3698 21.5092 73.2206 22.4007 74.3671 22.5347C75.6122 22.7151 76.6861 22.1122 77.2567 21.1175L77.5991 20.3239L77.5421 7.11564C80.0322 7.10533 82.1125 7.09502 84.6442 7.08472L84.7064 21.4731C84.1461 25.2094 80.8208 28.7086 77.1063 29.461C72.7537 30.4556 68.7436 28.6879 66.3364 25.4001C65.3715 23.854 64.6141 22.2049 64.6348 20.2311L64.5778 7.15171C65.3144 7.15687 71.296 7.13625 71.9392 7.12079L71.9341 7.12594Z" fill="#231F20"/>
<path fill-rule="evenodd" clip-rule="evenodd" d="M14.6711 43.9473L37.0824 43.8545L37.1084 51.0487L14.7023 51.1415L14.6711 43.9473Z" fill="#231F20"/>
<path fill-rule="evenodd" clip-rule="evenodd" d="M37.3003 76.6768L30.2449 76.7232L30.2137 69.0703C25.2386 69.1012 19.89 69.1167 14.863 69.1321L14.8319 61.8555L29.9751 61.7936C30.001 59.3354 29.9492 56.5165 29.944 53.9037L37.2069 53.8728L37.3055 76.6768H37.3003Z" fill="#231F20"/>
<path fill-rule="evenodd" clip-rule="evenodd" d="M15.8695 93.4823H14.7542V83.9124H15.937V87.3909C16.4661 86.6694 17.1509 86.3139 17.9913 86.3139C18.894 86.3139 19.6099 86.6385 20.1287 87.293C20.6527 87.9475 20.9121 88.7772 20.9121 89.7924C20.9121 90.8077 20.6682 91.7198 20.1806 92.5031C19.6929 93.2916 18.9096 93.6833 17.8253 93.6833C17.3065 93.6833 16.9019 93.5751 16.6062 93.3638C16.3105 93.1525 16.0719 92.9 15.8955 92.6165L15.8695 93.4823ZM19.6929 89.978C19.6929 89.2771 19.5736 88.6638 19.3298 88.1485C19.086 87.628 18.5672 87.3703 17.7683 87.3703C17.016 87.3703 16.5076 87.6641 16.2534 88.2516C15.994 88.839 15.8695 89.5296 15.8695 90.3284C15.8695 91.1272 16.0667 91.7507 16.4713 92.1218C16.8708 92.4928 17.3117 92.6732 17.7994 92.6732C18.4167 92.6732 18.8888 92.4258 19.2105 91.926C19.5321 91.4312 19.6929 90.7819 19.6929 89.978ZM23.672 88.6329H22.5877C22.5877 87.8238 22.8419 87.2363 23.3451 86.8653C23.8484 86.4942 24.5643 86.3139 25.4825 86.3139C26.0532 86.3139 26.629 86.4427 27.2152 86.7055C27.7963 86.9683 28.0868 87.4837 28.0868 88.2567V92.2661C28.0868 92.5392 28.2165 92.6784 28.4759 92.6784L28.865 92.6268V93.4823C28.7301 93.5184 28.6159 93.5493 28.5174 93.5751C28.4188 93.6008 28.3202 93.6163 28.2217 93.6163C27.7496 93.6163 27.4228 93.5184 27.2412 93.3225C27.0648 93.1267 26.9714 92.869 26.9714 92.5495C26.6757 92.869 26.3333 93.137 25.939 93.3535C25.5448 93.5699 25.0467 93.6781 24.4346 93.6781C23.7809 93.6781 23.2518 93.4926 22.8471 93.1267C22.4425 92.7557 22.235 92.2712 22.235 91.6683C22.235 91.189 22.3802 90.7304 22.6655 90.2975C22.9509 89.8646 23.5215 89.5914 24.3671 89.4832L26.3126 89.241C26.4993 89.2256 26.6498 89.1637 26.7639 89.0555C26.878 88.9473 26.9299 88.736 26.9299 88.4165C26.9299 87.6641 26.38 87.2827 25.2802 87.2827C24.6888 87.2827 24.2893 87.4115 24.0818 87.6641C23.8691 87.9166 23.7342 88.2412 23.672 88.6278V88.6329ZM26.9299 91.0602V89.9264C26.8313 90.0089 26.6498 90.0759 26.3904 90.1377C26.131 90.1996 25.7212 90.2666 25.1661 90.3439C24.611 90.4212 24.1908 90.5294 23.8951 90.684C23.6045 90.8334 23.4541 91.1014 23.4541 91.4879C23.4541 92.2919 23.8795 92.6887 24.7355 92.6887C25.3113 92.6887 25.8197 92.5341 26.2659 92.2197C26.7068 91.9053 26.9299 91.524 26.9299 91.0653V91.0602ZM36.0864 93.4823H34.971V92.4413C34.7116 92.8587 34.4107 93.1679 34.0683 93.3741C33.7259 93.5802 33.2798 93.6833 32.7299 93.6833C32.1073 93.6833 31.573 93.5132 31.1165 93.1782C30.6651 92.8433 30.4369 92.2919 30.4369 91.524V86.5148H31.6197V91.1375C31.6197 91.6786 31.739 92.0703 31.9828 92.3125C32.2267 92.5547 32.5535 92.6732 32.9737 92.6732C33.6429 92.6732 34.1358 92.4361 34.4418 91.9672C34.7479 91.4982 34.9036 90.9571 34.9036 90.3542V86.5148H36.0864V93.4823ZM38.1771 93.4823V86.5148H39.2924V87.4992C39.6141 87.0714 39.9461 86.7674 40.2833 86.587C40.6205 86.4066 41.0096 86.3139 41.435 86.3139C41.9797 86.3139 42.3844 86.4272 42.6489 86.6488C42.9135 86.8704 43.1314 87.1384 43.2974 87.4476C43.6657 87.0456 43.9926 86.7571 44.2779 86.5818C44.5632 86.4066 44.9523 86.3139 45.4452 86.3139C45.9795 86.3139 46.4775 86.4891 46.9341 86.8344C47.3906 87.1796 47.6189 87.7877 47.6189 88.6587V93.4823H46.436V88.9782C46.436 88.4628 46.3375 88.066 46.1403 87.7877C45.9432 87.5095 45.606 87.3703 45.1339 87.3703C44.6618 87.3703 44.2572 87.5558 43.9459 87.932C43.6398 88.3031 43.4842 88.7411 43.4842 89.2359V93.4874H42.3014V88.6638C42.3014 88.2979 42.2184 87.9939 42.0523 87.7465C41.8863 87.4992 41.601 87.3755 41.2015 87.3755C40.745 87.3755 40.3248 87.5507 39.9357 87.9011C39.5466 88.2516 39.3547 88.8494 39.3547 89.6945V93.4926H38.1719L38.1771 93.4823ZM50.8768 86.5148V93.4823H49.694V86.5148H50.8768ZM50.8768 85.2471H49.694V83.9124H50.8768V85.2471ZM55.5406 87.4837H54.4149V92.0136C54.4149 92.2558 54.4823 92.4052 54.6172 92.4671C54.7521 92.5289 54.9233 92.5598 55.1256 92.5598H55.5406V93.4771L54.6535 93.5699C54.1192 93.5699 53.7456 93.4411 53.5381 93.1782C53.3306 92.9154 53.232 92.5495 53.232 92.0806V87.4837H52.2775V86.5097H53.232V84.5617H54.4149V86.5097H55.5406V87.4837ZM58.7 92.0703V93.4823H57.3045V92.0703H58.7ZM66.5854 88.8597H65.4441C65.3715 88.3804 65.2003 88.0093 64.9202 87.7517C64.6452 87.494 64.2613 87.3652 63.7788 87.3652C63.0992 87.3652 62.6064 87.6228 62.3055 88.133C61.9994 88.6432 61.849 89.2616 61.849 89.9934C61.849 90.7252 61.9839 91.3848 62.2588 91.9002C62.5338 92.4155 63.037 92.6732 63.7685 92.6732C64.1731 92.6732 64.5259 92.5289 64.8372 92.2403C65.1432 91.9517 65.3507 91.5446 65.4493 91.019H66.5906C66.5076 91.7198 66.2482 92.3382 65.7969 92.8793C65.3507 93.4153 64.6608 93.6884 63.7322 93.6884C62.8035 93.6884 61.9994 93.3638 61.4391 92.7144C60.8737 92.0651 60.5935 91.2251 60.5935 90.1944C60.5935 89.0503 60.8737 88.1176 61.4391 87.3961C62.0046 86.6746 62.845 86.319 63.9604 86.319C64.8216 86.319 65.4701 86.5767 65.9214 87.0869C66.3676 87.5971 66.5906 88.1897 66.5906 88.8648L66.5854 88.8597ZM67.6801 89.9934C67.6801 88.9885 67.955 88.1279 68.5101 87.4012C69.0652 86.6746 69.8745 86.3139 70.938 86.3139C72.0015 86.3139 72.8004 86.6798 73.3607 87.4064C73.921 88.133 74.2011 88.9988 74.2011 89.9934C74.2011 90.988 73.9262 91.859 73.3711 92.5856C72.816 93.3071 72.0067 93.673 70.9432 93.673C69.8797 93.673 69.0808 93.3071 68.5205 92.5804C67.9602 91.8538 67.6801 90.988 67.6801 89.9934ZM68.8992 89.9934C68.8992 90.6531 69.0496 91.2612 69.3557 91.8177C69.6618 92.3795 70.1858 92.6577 70.938 92.6577C71.6902 92.6577 72.2038 92.3795 72.5151 91.8177C72.8212 91.256 72.9768 90.6479 72.9768 89.9934C72.9768 89.3389 72.8264 88.7257 72.5203 88.1691C72.2142 87.6074 71.6902 87.3291 70.938 87.3291C70.1858 87.3291 69.6722 87.6074 69.3609 88.1691C69.0496 88.7308 68.8992 89.3389 68.8992 89.9934ZM75.856 93.4823V86.5148H76.9714V87.4992C77.2931 87.0714 77.6251 86.7674 77.9623 86.587C78.2995 86.4066 78.6886 86.3139 79.114 86.3139C79.6587 86.3139 80.0633 86.4272 80.3279 86.6488C80.5925 86.8704 80.8104 87.1384 80.9764 87.4476C81.3447 87.0456 81.6716 86.7571 81.9569 86.5818C82.2422 86.4066 82.6313 86.3139 83.1241 86.3139C83.6585 86.3139 84.1565 86.4891 84.613 86.8344C85.0696 87.1796 85.2978 87.7877 85.2978 88.6587V93.4823H84.115V88.9782C84.115 88.4628 84.0164 88.066 83.8193 87.7877C83.6222 87.5095 83.285 87.3703 82.8129 87.3703C82.3408 87.3703 81.9361 87.5558 81.6249 87.932C81.3188 88.3031 81.1632 88.7411 81.1632 89.2359V93.4874H79.9803V88.6638C79.9803 88.2979 79.8973 87.9939 79.7313 87.7465C79.5653 87.4992 79.28 87.3755 78.8805 87.3755C78.424 87.3755 78.0038 87.5507 77.6147 87.9011C77.2256 88.2516 77.0337 88.8494 77.0337 89.6945V93.4926H75.8509L75.856 93.4823Z" fill="#808285"/>
<path fill-rule="evenodd" clip-rule="evenodd" d="M39.6919 31.5945L85.3186 31.4089L85.5053 76.6201L39.8838 76.8056L39.6919 31.5945Z" fill="#ED1C24"/>
</g>
<defs>
<clipPath id="clip0_81_418">
<rect width="100" height="99.3377" fill="white" transform="translate(0 0.622314)"/>
</clipPath>
</defs>
</svg>
