<svg width="100" height="101" viewBox="0 0 100 101" fill="none" xmlns="http://www.w3.org/2000/svg">
<g clip-path="url(#clip0_81_398)">
<path fill-rule="evenodd" clip-rule="evenodd" d="M0 0.291016H100V100.291H0V0.291016Z" fill="white"/>
<path fill-rule="evenodd" clip-rule="evenodd" d="M31.7752 56.0029C29.7364 56.558 28.1904 56.558 27.0803 56.558C23.869 56.558 20.1027 54.9497 20.1027 50.3793C20.1027 45.8088 23.3139 44.019 27.7599 44.019C28.564 44.019 30.2915 44.0813 31.4639 44.5741V47.2303C30.4731 46.6752 28.9945 46.4262 28.2527 46.4262C25.5965 46.4262 23.4332 47.5364 23.4332 50.3793C23.4332 52.7242 25.1608 54.2079 27.5108 54.2079C27.9414 54.2079 28.3772 54.0834 28.6833 53.9589V51.5517H26.769V49.2639H31.77V55.9977L31.7752 56.0029Z" fill="black"/>
<path fill-rule="evenodd" clip-rule="evenodd" d="M34.5559 44.2058H43.0795V46.5507H37.7672V49.0253H42.7734V51.3079H37.7672V54.0886H43.2662V56.3764H34.5559V44.2058Z" fill="black"/>
<path fill-rule="evenodd" clip-rule="evenodd" d="M48.9468 51.2457H49.9377C51.0479 51.2457 52.3448 51.3702 52.3448 52.6671C52.3448 53.9641 51.1102 54.0886 49.9377 54.0886H48.9468V51.2457ZM45.7356 56.3764H50.8611C53.0245 56.3764 55.5561 55.759 55.5561 52.8539C55.5561 51.3702 54.752 50.509 53.0867 50.1977V50.1355C54.4459 49.7049 55.25 48.8385 55.25 47.2925C55.25 45.2537 53.5795 44.2058 51.2969 44.2058H45.7356V56.3764ZM48.9468 46.5507H49.8755C50.9856 46.5507 52.0388 46.6129 52.0388 47.7231C52.0388 48.7711 50.9286 49.0201 49.8755 49.0201H48.9468V46.5507Z" fill="black"/>
<path fill-rule="evenodd" clip-rule="evenodd" d="M57.9062 44.2058H66.4921V46.5507H61.1797V49.0253H66.1808V51.3079H61.1797V54.0886H66.6788V56.3764H57.9062V44.2058Z" fill="black"/>
<path fill-rule="evenodd" clip-rule="evenodd" d="M72.3594 46.5506H73.1635C74.3982 46.5506 75.5707 46.7374 75.5707 47.8476C75.5707 49.269 74.2115 49.269 73.1635 49.269H72.3594V46.5506ZM69.0859 56.3763H72.3594V51.5569H73.039C74.2115 51.5569 74.6473 52.112 75.2646 54.213L76.0065 56.3763H79.3422L78.1698 53.1028C77.5524 51.6191 77.4902 50.6957 76.4422 50.3844C78.0505 50.0161 78.7871 48.9007 78.7871 47.2977C78.7871 45.1966 77.0596 44.2109 74.8963 44.2109H69.0911V56.3815L69.0859 56.3763Z" fill="black"/>
<path fill-rule="evenodd" clip-rule="evenodd" d="M81.381 44.2058H84.6545V56.3764H81.381V44.2058Z" fill="black"/>
<path fill-rule="evenodd" clip-rule="evenodd" d="M89.4117 46.6129H86.382V44.2058H95.5852V46.6129H92.6229V56.3764H89.4117V46.6129Z" fill="black"/>
<path fill-rule="evenodd" clip-rule="evenodd" d="M4.40967 44.2058H16.5802V56.3764H4.40967V44.2058Z" fill="#0085BF"/>
</g>
<defs>
<clipPath id="clip0_81_398">
<rect width="100" height="100" fill="white" transform="translate(0 0.291016)"/>
</clipPath>
</defs>
</svg>
