<svg width="100" height="101" viewBox="0 0 100 101" fill="none" xmlns="http://www.w3.org/2000/svg">
<g clip-path="url(#clip0_81_410)">
<path fill-rule="evenodd" clip-rule="evenodd" d="M0 0.291016H100V100.291H0V0.291016Z" fill="white"/>
<path fill-rule="evenodd" clip-rule="evenodd" d="M90.2521 34.1777V37.0309H96.4671V40.3771H90.2521V44.0293H98.5267V47.3806H85.967V30.8263H97.6862V34.1777H90.2573H90.2521ZM81.1216 30.8263V47.3806H76.8313V40.3771H68.6294V47.3806H64.3391V30.8263H68.6294V37.0309H76.8313V30.8263H81.1216ZM50.8715 30.4165C56.7493 30.4165 61.5428 34.3177 61.5428 39.1061C61.5428 43.8944 56.7493 47.7956 50.8715 47.7956C44.9938 47.7956 40.2002 43.8944 40.2002 39.1061C40.2002 34.3177 44.9938 30.4165 50.8715 30.4165ZM50.8715 33.5655C54.0205 33.5655 56.5937 36.0556 56.5937 39.1009C56.5937 42.1461 54.0205 44.6363 50.8715 44.6363C47.7225 44.6363 45.1494 42.1513 45.1494 39.1009C45.1494 36.0505 47.7174 33.5655 50.8715 33.5655ZM23.3347 30.8263H31.5003C36.382 30.8263 38.0266 33.4929 38.0266 35.9778C38.0266 38.4628 36.9008 40.0243 34.6285 40.8751L40.5374 47.3806H34.6234C32.4082 44.6051 30.193 41.8245 27.9726 39.0438H30.6599C32.0087 39.0438 33.1033 37.9492 33.1033 36.6004C33.1033 35.2515 32.0087 34.1569 30.6599 34.1569H27.6198V47.3806H23.3347V30.8263ZM12.1446 30.4165C14.8163 30.4165 17.2598 31.2206 19.1326 32.5435V35.4694C16.6476 34.1413 14.3235 33.5032 12.1446 33.5655C8.99563 33.5655 6.42249 36.0556 6.42249 39.1009C6.42249 42.1461 8.99045 44.6363 12.1446 44.6363C13.1822 44.6363 14.1523 44.3665 14.9927 43.9048V39.2358H19.4179V45.4507C17.5088 46.9033 14.9512 47.7956 12.1446 47.7956C6.26685 47.7956 1.47333 43.8944 1.47333 39.1061C1.47333 34.3177 6.26685 30.4165 12.1446 30.4165Z" fill="#0061AF"/>
<path fill-rule="evenodd" clip-rule="evenodd" d="M39.5933 53.1184C42.9861 54.3635 46.4982 55.6501 50.6485 55.6501C54.7987 55.6501 58.3057 54.3635 61.6985 53.1184C70.2895 49.9642 73.0079 49.9798 81.6508 53.0095C85.0488 54.1975 88.5609 55.427 92.7215 55.427C93.9458 55.427 95.1183 55.318 96.2388 55.1261C95.7668 55.7901 95.2376 56.449 94.6618 57.0923C94.0288 57.1493 93.3856 57.1805 92.7163 57.1805C88.2808 57.1805 84.613 55.8991 81.0749 54.654C77.9726 53.5698 74.9689 52.5166 71.685 52.4803H71.6435C68.3804 52.527 65.3818 53.6216 62.2899 54.763C58.7518 56.0599 55.084 57.4087 50.6381 57.4087C46.1922 57.4087 42.5192 56.0599 38.9863 54.763C35.8892 53.6216 32.8906 52.527 29.6275 52.4803H29.586C26.3021 52.5218 23.3036 53.5698 20.1961 54.654C16.6632 55.8939 12.9954 57.1805 8.55467 57.1805C7.83357 57.1805 7.12803 57.1442 6.43805 57.0819C5.85702 56.4334 5.32786 55.7746 4.85059 55.1054C6.0334 55.3181 7.26291 55.4374 8.54949 55.4374C12.7101 55.4374 16.2274 54.2079 19.6202 53.0199C28.2631 49.9902 30.9763 49.9746 39.5725 53.1288L39.5933 53.1184ZM39.5933 59.4994C42.9861 60.7445 46.4982 62.0362 50.6485 62.0362C54.7987 62.0362 58.3057 60.7445 61.6985 59.4994C70.2895 56.3452 73.0079 56.366 81.6508 59.3957C84.1409 60.262 86.6933 61.1595 89.5206 61.5745C88.8462 62.0414 88.1355 62.5083 87.404 62.9597C85.1733 62.472 83.1033 61.7405 81.0801 61.035C77.9778 59.9456 74.9741 58.8924 71.6902 58.8613H71.6487C68.3856 58.9028 65.387 60.0026 62.2951 61.1388C58.757 62.4409 55.0892 63.7845 50.6433 63.7845C46.1973 63.7845 42.5244 62.4409 38.9915 61.1388C35.8944 60.0026 32.8958 58.9028 29.6327 58.8613H29.5912C26.3073 58.8976 23.3088 59.9456 20.2013 61.035C18.1417 61.7561 16.0355 62.4928 13.758 62.9856C13.0214 62.5291 12.3106 62.0726 11.6259 61.5901C14.5051 61.1855 17.099 60.2776 19.6254 59.3957C28.2683 56.366 30.9815 56.3452 39.5777 59.4994H39.5933ZM39.5933 65.8856C42.9861 67.1307 46.4982 68.4172 50.6485 68.4172C54.7987 68.4172 58.3057 67.1307 61.6985 65.8856C70.2895 62.7314 73.0079 62.747 81.6508 65.7767C81.7286 65.8026 81.796 65.8285 81.8738 65.8545C81.0957 66.202 80.2967 66.5393 79.4823 66.8661C76.935 66.0049 74.4086 65.2734 71.6954 65.2475H71.6539C68.3907 65.2942 65.3922 66.394 62.3003 67.5301C58.7622 68.8271 55.0944 70.1759 50.6485 70.1759C46.2025 70.1759 42.5296 68.8271 38.9967 67.5301C35.8996 66.394 32.901 65.2942 29.6379 65.2475H29.5964C26.852 65.2786 24.2996 66.0205 21.7265 66.8972C20.9016 66.5756 20.1079 66.2384 19.3297 65.8856C19.4283 65.8493 19.5372 65.813 19.6358 65.7818C28.2787 62.7522 30.9919 62.7366 39.5881 65.8908L39.5933 65.8856Z" fill="#56C5D0"/>
</g>
<defs>
<clipPath id="clip0_81_410">
<rect width="100" height="100" fill="white" transform="translate(0 0.291016)"/>
</clipPath>
</defs>
</svg>
