<?xml version="1.0" encoding="utf-8"?>
<!-- Generator: Adobe Illustrator 19.2.1, SVG Export Plug-In . SVG Version: 6.00 Build 0)  -->
<svg version="1.1" id="layer" xmlns="http://www.w3.org/2000/svg" xmlns:xlink="http://www.w3.org/1999/xlink" x="0px" y="0px"
	 viewBox="0 0 652 652" style="enable-background:new 0 0 652 652;" xml:space="preserve">
<style type="text/css">
	.st0{fill-rule:evenodd;clip-rule:evenodd;fill:#1F355E;}
	.st1{fill:#1F355E;}
	.st2{fill:#A79C94;}
</style>
<g>
	<path class="st0" d="M303.5,251.1c0.4,1,0.7,1.9,1.1,2.9c5.6,13.6,11.2,27.2,16.8,40.8c5,12,9.9,24,14.9,36.1
		c0.2,0.4,0.3,0.8,0.6,1.3c-0.3,0-0.5,0-0.7,0c-6.3,0-12.6,0-18.9,0c-0.5,0-0.7-0.2-0.9-0.6c-2.4-6-4.8-12-7.2-18
		c-0.2-0.4-0.4-0.6-0.9-0.6c-8.3,0-16.6,0-25,0c-0.5,0-0.7,0.1-0.8,0.6c-2.3,6-4.6,12-6.8,18c-0.2,0.5-0.4,0.7-1,0.7
		c-11.9,0-23.8,0-35.7,0c-0.6,0-0.8-0.2-1.1-0.7c-4.3-7.4-8.5-14.8-12.9-22.2c-1.3-2.2-2.9-4.2-4.4-6.3c-0.6-0.9-1.4-1.4-2.6-1.3
		c-1.5,0.1-3,0-4.6,0v30.3h-18.8c0-0.3,0-0.6,0-0.9v-79.4c0-0.3,0-0.5,0-0.8h26.4c1.3,0.1,2.5,0.2,3.8,0.3c4,0.3,7.8,1,11.5,2.5
		c4.2,1.7,7.8,4.3,10.3,8.1c1.8,2.8,2.8,5.8,3.2,9.1c0.5,3.7,0.3,7.3-1,10.8c-2.1,5.6-5.9,9.5-11,12.5c-0.7,0.4-1.4,0.8-2.1,1.2
		c0.6,0.5,1.1,0.9,1.5,1.3c2.1,2,3.8,4.4,5.3,6.8c4.3,7,8.5,14,12.7,21c0.9,1.6,1.8,3.2,2.8,4.8c0.1-0.3,0.2-0.5,0.3-0.7
		c3.9-9.9,7.8-19.9,11.6-29.8c5.9-15.1,11.9-30.3,17.8-45.4c0.3-0.9,0.6-1.7,0.9-2.6H303.5z M213.3,288.3c0.2,0,0.3,0.1,0.5,0.1
		c2.2,0,4.4,0.1,6.6,0c1.2,0,2.4-0.2,3.5-0.6c5-1.6,7.8-6.4,7.5-11.6c-0.3-4.7-3.7-8.4-8.3-9.3c-3.2-0.6-6.5-0.3-9.7-0.3
		c0,0-0.1,0-0.1,0.1V288.3z M295.8,275.6c-1.9,7.7-5.3,14.9-7.8,22.4h15.2C300.8,290.4,297.8,283.2,295.8,275.6"/>
	<path class="st0" d="M105,251.1c0,0.3,0,0.7,0,1c0,26.3,0,52.6,0,79v1.1H86.3v-49.9c-0.3,0.5-0.5,0.9-0.7,1.2
		c-2.7,4.1-5.4,8.3-8.1,12.4c-3.1,4.7-6.3,9.5-9.4,14.2c-0.3,0.5-0.6,0.6-1.1,0.6c-2.3,0-4.6,0-6.9,0c-0.4,0-0.7-0.1-1-0.5
		c-4.3-5.9-8.7-11.9-13-17.8c-1.9-2.6-3.8-5.2-5.7-7.9c-0.5-0.7-1-1.5-1.6-2.3v50h-0.8H20.9c-0.3,0-0.6,0-0.9,0v-81.1h17.1
		c0.1,0.1,0.1,0.3,0.2,0.4c0.8,1.1,1.6,2.3,2.4,3.4c4.8,6.7,9.7,13.4,14.5,20.2c3.1,4.4,6.1,9,9.1,13.5c0.1,0.2,0.2,0.3,0.4,0.5
		c0.1-0.2,0.2-0.2,0.2-0.3c2.6-5.2,5.8-10,9-14.9c4.6-6.9,9.1-13.8,13.7-20.8c0.4-0.7,0.8-1.3,1.2-2H105z"/>
	<path class="st0" d="M600.8,251.1c0,0.3,0,0.6,0,0.9c0,16.8,0,33.7,0,50.5v1.1c-6.5-6.5-12.9-12.9-19.3-19.3
		c-7,7.1-13.9,14.1-20.7,21c-7.3-7.1-14.4-14-21.5-21c-6.4,6.3-12.9,12.8-19.5,19.4v-1V252c0-0.3,0-0.6,0-0.9H600.8z M576.2,279.3
		c-5.3-5.3-10.5-10.5-15.8-15.9c-5.2,5.2-10.6,10.4-15.8,15.6c1.9,1.9,3.6,3.7,5.5,5.5c3.5-3.5,6.9-7,10.5-10.5
		c3.5,3.5,6.9,7,10.3,10.5C572.8,282.7,574.5,281,576.2,279.3"/>
	<path class="st0" d="M156.2,251.1c0.7,1.9,1.5,3.7,2.2,5.6c2.6,6.4,5.3,12.8,7.9,19.2c3.3,8.1,6.6,16.1,10,24.2
		c3.6,8.7,7.2,17.4,10.7,26.1c0.7,1.7,1.4,3.5,2.2,5.2c0.1,0.2,0.2,0.5,0.3,0.8h-0.9c-6.1,0-12.3,0-18.5,0c-0.7,0-0.9-0.2-1.2-0.8
		c-2.4-5.9-4.8-11.9-7.1-17.8c-0.2-0.5-0.5-0.7-1-0.7c-8.3,0-16.5,0-24.8,0c-0.5,0-0.8,0.2-1,0.7c-2.3,6-4.6,11.9-6.8,17.9
		c-0.1,0.4-0.2,0.7-0.7,0.7c-5.8,0-11.7,0-17.5,0c-0.1,0-0.2,0-0.4,0c0.5-1.2,0.9-2.4,1.4-3.6c5.5-13.9,10.9-27.9,16.4-41.8
		c4.7-11.9,9.3-23.8,13.9-35.7H156.2z M148.5,275.4c-1.8,7.9-5.3,15.1-7.8,22.6h15.1C153.5,290.4,150.5,283.2,148.5,275.4"/>
	<path class="st0" d="M476.5,251.1c-2.6,4.4-5.2,8.7-7.8,13.1c-6.5,10.9-13,21.9-19.5,32.8c-3.9,6.5-7.8,13.1-11.7,19.6
		c-0.1,0.2-0.2,0.4-0.4,0.8c13-0.1,25.8-0.2,38.6-0.4v15.1h-68.9c13.5-22.1,27.1-44.2,40.6-66.4c-0.2,0-0.4,0-0.5,0
		c-0.3,0-0.6,0-0.9,0c-6,0-12,0-17.9,0.1c-4.4,0-8.8,0.1-13.3,0.2c-0.6,0-0.9-0.2-1-0.8c-1.4-4.7-2.8-9.4-4.2-14.1H476.5z"/>
	<path class="st0" d="M406.7,251.1c-4.6,7.7-9.1,15.3-13.7,22.9c-5.4,9.1-10.9,18.3-16.3,27.4c-3,5.1-6,10.1-9.1,15.2
		c-0.1,0.2-0.2,0.4-0.4,0.7c12.9-0.1,25.7-0.2,38.6-0.4v15.1H337c13.6-22.2,27.1-44.3,40.7-66.5c-0.4,0-0.6,0-0.9,0
		c-0.2,0-0.4,0-0.6,0c-6,0-11.9,0-17.9,0.1c-4.4,0-8.8,0.1-13.3,0.2c-0.6,0-0.9-0.2-1-0.8c-1.3-4.6-2.7-9.1-4.1-13.6
		c0-0.1,0-0.3-0.1-0.4H406.7z"/>
	<path class="st0" d="M500.9,251.1c0,0.3,0,0.7,0,1v79v1.1h-18.8v-1v-79c0-0.3,0-0.7,0-1H500.9z"/>
	<path class="st0" d="M519.8,332.1v-0.7c0-5.4,0-10.9,0-16.3c0-0.4,0.1-0.7,0.4-1c2.1-2,4.1-4,6.1-6c3.6-3.6,7.2-7.2,10.8-10.8
		c0.7-0.7,1.5-1.4,2.3-2.2c7,6.9,14,13.9,21,20.8c7-7,13.9-13.9,21-21c0.3,0.3,0.5,0.4,0.6,0.6c6.1,6.1,12.2,12.2,18.3,18.3
		c0.4,0.4,0.6,0.8,0.6,1.3c0,5.4,0,10.8,0,16.2v0.8H519.8z"/>
	<path class="st1" d="M606.4,257.8c0-3.9,3.1-6.7,6.8-6.7c3.7,0,6.8,2.8,6.8,6.7c0,3.9-3.1,6.7-6.8,6.7
		C609.6,264.5,606.4,261.7,606.4,257.8 M613.3,263.4c3,0,5.4-2.4,5.4-5.6c0-3.2-2.4-5.6-5.4-5.6c-3.1,0-5.5,2.4-5.5,5.6
		C607.8,261,610.2,263.4,613.3,263.4 M611.8,261.7h-1.2v-7.7h2.9c1.8,0,2.7,0.7,2.7,2.2c0,1.4-0.9,2-2,2.1l2.2,3.4h-1.3l-2-3.4h-1.3
		V261.7z M613.2,257.3c1,0,1.9-0.1,1.9-1.3c0-1-0.9-1.1-1.7-1.1h-1.6v2.4H613.2z"/>
	<path class="st2" d="M205,387.9c5.9,0,9.8-4,9.8-9.5v-0.1c0-5.5-3.9-9.6-9.8-9.6h-5.6v19.2H205z M194.5,364.2H205
		c8.9,0,15,6.1,15,14.1v0.1c0,8-6.1,14.1-15,14.1h-10.6V364.2z"/>
	<path class="st2" d="M238,369.9l4.9,11.3h-9.7L238,369.9z M235.8,364l-12.5,28.5h5.1l2.9-6.8h13.4l2.9,6.8h5.3L240.4,364H235.8z"/>
	<path class="st2" d="M271.6,378.2c3.6,0,5.8-1.9,5.8-4.7v-0.1c0-3-2.2-4.7-5.9-4.7h-7.2v9.5H271.6z M259.3,364.2h12.6
		c3.6,0,6.3,1.1,8.2,2.8c1.5,1.5,2.3,3.6,2.3,6.1v0.1c0,4.6-2.8,7.4-6.8,8.6l7.6,10.7h-5.9l-7-9.9h-0.1h-6.1v9.9h-5V364.2z"/>
	<polygon class="st2" points="290.2,364.2 290.2,392.5 311.3,392.5 311.3,388 295.1,388 295.1,380.4 309.3,380.4 309.3,376 
		295.1,376 295.1,368.6 311.1,368.6 311.1,364.2 	"/>
	<polygon class="st2" points="330.6,364.2 330.6,368.8 339.6,368.8 339.6,392.5 344.6,392.5 344.6,368.8 353.5,368.8 353.5,364.2 	
		"/>
	<path class="st2" d="M382,378.4L382,378.4c0-5.6-4-10.1-9.6-10.1c-5.6,0-9.5,4.5-9.5,10v0.1c0,5.5,4,10.1,9.6,10.1
		C378.1,388.4,382,383.9,382,378.4 M357.6,378.4L357.6,378.4c0-8,6.1-14.7,14.8-14.7c8.7,0,14.8,6.6,14.8,14.6v0.1
		c0,8-6.1,14.6-14.8,14.6S357.6,386.4,357.6,378.4"/>
	<path class="st2" d="M421.7,388.1c3.4,0,5.5-1.3,5.5-3.9v-0.1c0-2.4-1.9-3.8-5.8-3.8h-7.9v7.8H421.7z M420.3,376.1
		c3.2,0,5.3-1.3,5.3-3.8v-0.1c0-2.2-1.8-3.6-5-3.6h-7.2v7.5H420.3z M408.6,364.2h12.7c3.2,0,5.8,0.9,7.4,2.5
		c1.3,1.3,1.9,2.8,1.9,4.7v0.1c0,3.4-1.9,5.2-4,6.3c3.3,1.1,5.6,3,5.6,6.9v0.1c0,5.1-4.2,7.8-10.5,7.8h-13.1V364.2z"/>
	<polygon class="st2" points="439.4,364.2 439.4,392.5 460.6,392.5 460.6,388 444.4,388 444.4,380.4 458.6,380.4 458.6,376 
		444.4,376 444.4,368.6 460.4,368.6 460.4,364.2 	"/>
	<path class="st2" d="M495,388.1c3.4,0,5.5-1.3,5.5-3.9v-0.1c0-2.4-1.9-3.8-5.8-3.8h-7.9v7.8H495z M493.5,376.1
		c3.2,0,5.3-1.3,5.3-3.8v-0.1c0-2.2-1.8-3.6-5-3.6h-7.2v7.5H493.5z M481.9,364.2h12.7c3.2,0,5.8,0.9,7.4,2.5
		c1.3,1.3,1.9,2.8,1.9,4.7v0.1c0,3.4-1.9,5.2-4,6.3c3.3,1.1,5.6,3,5.6,6.9v0.1c0,5.1-4.2,7.8-10.5,7.8h-13.1V364.2z"/>
	<path class="st2" d="M535.8,378.4L535.8,378.4c0-5.6-4-10.1-9.6-10.1c-5.6,0-9.5,4.5-9.5,10v0.1c0,5.5,4,10.1,9.6,10.1
		C531.9,388.4,535.8,383.9,535.8,378.4 M511.4,378.4L511.4,378.4c0-8,6.1-14.7,14.8-14.7c8.7,0,14.8,6.6,14.8,14.6v0.1
		c0,8-6.1,14.6-14.8,14.6C517.5,393,511.4,386.4,511.4,378.4"/>
	<polygon class="st2" points="548.7,364.2 548.7,392.5 568.5,392.5 568.5,387.9 553.6,387.9 553.6,364.2 	"/>
	<path class="st2" d="M585.8,387.9c5.9,0,9.8-4,9.8-9.5v-0.1c0-5.5-3.9-9.6-9.8-9.6h-5.6v19.2H585.8z M575.3,364.2h10.6
		c8.9,0,15,6.1,15,14.1v0.1c0,8-6.1,14.1-15,14.1h-10.6V364.2z"/>
	<polygon class="st2" points="604.6,365.7 602.8,365.7 602.8,364.4 607.8,364.4 607.8,365.7 605.9,365.7 605.9,370.5 604.6,370.5 	
		"/>
	<polygon class="st2" points="608.8,364.4 610.2,364.4 611.8,367 613.4,364.4 614.8,364.4 614.8,370.5 613.5,370.5 613.5,366.5 
		611.8,369.1 611.8,369.1 610.1,366.5 610.1,370.5 608.8,370.5 	"/>
</g>
</svg>
