<svg width="100" height="101" viewBox="0 0 100 101" fill="none" xmlns="http://www.w3.org/2000/svg">
<g clip-path="url(#clip0_81_362)">
<path fill-rule="evenodd" clip-rule="evenodd" d="M0 0.291016H100V100.291H0V0.291016Z" fill="white"/>
<path fill-rule="evenodd" clip-rule="evenodd" d="M8.74145 47.0953V48.4545C7.67276 48.2159 6.81678 47.8423 6.31875 48.304C5.22412 49.3209 7.62607 50.3999 8.13966 50.8357C11.0033 53.2688 8.1656 56.8328 4.58084 55.2816V53.9121C5.20856 54.1351 6.52626 54.5709 7.15398 54.1559C8.11373 53.523 7.76096 52.2935 6.79603 51.7954C5.8726 51.3182 4.78316 50.6697 4.51339 49.7255C3.79229 47.1887 6.82715 45.871 8.74145 47.0953Z" fill="#00A651"/>
<path fill-rule="evenodd" clip-rule="evenodd" d="M13.8825 46.7634H15.4752L18.2662 55.3544H16.7721L16.0822 53.2637H13.2756L12.6115 55.3544H11.1226L13.8825 46.7634Z" fill="#00A651"/>
<path fill-rule="evenodd" clip-rule="evenodd" d="M28.9479 46.7842H30.5354L33.3264 55.3752H31.8375L31.1423 53.2897H28.3409L27.6769 55.3752H26.1828L28.9479 46.7842Z" fill="#00A651"/>
<path fill-rule="evenodd" clip-rule="evenodd" d="M48.9209 46.7529H50.5084L53.2994 55.3439H51.8105L51.1154 53.2532H48.3139L47.6499 55.3439H46.1558L48.9209 46.7529Z" fill="#00A651"/>
<path fill-rule="evenodd" clip-rule="evenodd" d="M14.6711 48.3352L15.9006 52.1897H13.4416L14.6711 48.3352Z" fill="white"/>
<path fill-rule="evenodd" clip-rule="evenodd" d="M29.7313 48.356L30.966 52.2157H28.507L29.7313 48.356Z" fill="white"/>
<path fill-rule="evenodd" clip-rule="evenodd" d="M49.7043 48.325L50.939 52.1795H48.48L49.7043 48.325Z" fill="white"/>
<path fill-rule="evenodd" clip-rule="evenodd" d="M20.5852 46.675H22.0949V54.1455H24.3049V55.3335H20.5852V46.675Z" fill="#00A651"/>
<path fill-rule="evenodd" clip-rule="evenodd" d="M35.744 46.675H37.8139L39.8268 53.0924L41.8656 46.7217H43.8784V55.2972H42.5452V48.5945L40.2677 55.2972H39.3184L37.0668 48.4804V55.3542H35.744V46.675Z" fill="#00A651"/>
<path fill-rule="evenodd" clip-rule="evenodd" d="M55.7429 46.7219H57.4964L60.2563 53.0718V46.6804H61.5948V55.3596H60.0851L57.0814 48.8022V55.3752H55.7429V46.7219Z" fill="#00A651"/>
<path fill-rule="evenodd" clip-rule="evenodd" d="M64.946 46.7788H67.7786C72.2453 47.4377 72.1208 54.768 67.8149 55.375H64.9409V46.7788H64.946Z" fill="#00A651"/>
<path fill-rule="evenodd" clip-rule="evenodd" d="M80.8986 46.7426L84.115 46.7271C86.4806 47.1109 86.6881 50.0887 84.6078 51.1678C84.8776 51.4583 85.137 51.863 85.3497 52.2054C85.8166 52.9732 86.1071 54.1819 86.3198 55.3959H84.8102C84.5352 54.4932 84.0839 51.9097 83.2694 51.6606H82.4238V55.3647H80.9141L80.8986 46.7426Z" fill="#00A651"/>
<path fill-rule="evenodd" clip-rule="evenodd" d="M66.4764 48.1277H67.846C70.0041 48.5842 69.9419 53.6838 67.8616 54.1092H66.4764V48.1277Z" fill="white"/>
<path fill-rule="evenodd" clip-rule="evenodd" d="M82.4808 47.9824H83.3991C84.8465 48.1588 84.805 50.1561 83.4094 50.3221H82.4808V47.9824Z" fill="white"/>
<path fill-rule="evenodd" clip-rule="evenodd" d="M73.7446 46.6597H77.9778V48.0085H75.2387V50.2341H77.9207V51.5829H75.2387V54.1042H78.0712V55.3596H73.7446V46.6597Z" fill="#00A651"/>
<path fill-rule="evenodd" clip-rule="evenodd" d="M91.0199 47.9411L91.2274 47.7802L91.051 47.6246L91.2845 47.5831L91.2015 47.3652L91.5179 47.5831C91.7721 47.7595 91.933 47.6505 91.658 48.3717C92.3117 48.3768 93.1002 47.7802 92.8356 47.4378L92.6644 47.3808L92.4984 47.4067L92.1457 47.552L92.2546 47.36L92.0938 47.2148L92.2546 47.0903L92.1042 46.8879L92.3532 46.9606L92.6281 47.0851C93.1054 47.1525 93.1469 47.1785 93.2559 47.6039C95.6578 46.9243 95.4762 50.0629 93.8473 50.6387C95.139 49.1861 94.2312 48.3976 93.7694 48.7089C93.6761 48.7711 93.7331 48.7452 93.7124 48.7763C93.811 49.0201 93.7591 49.3158 93.6449 49.5597C93.4686 49.6478 93.4737 49.7983 93.2455 50.1096L93.1677 49.8969L92.9342 49.9851L93.0535 49.7724L92.872 49.6945L93.1832 49.5597C93.9199 48.8074 92.5088 49.155 91.7047 49.6478C91.3208 49.8813 91.4505 49.8605 91.4194 50.3326C91.3571 50.6439 90.9421 50.4312 90.636 50.3793L90.304 50.426L90.4181 50.2808L90.2521 50.1199L90.4389 50.0525L90.387 49.8139C90.4648 49.845 90.5582 49.9539 90.6775 50.0162C90.9213 50.1407 91.1807 50.1822 91.051 49.7412L90.4493 49.2588C90.3455 49.0928 90.2469 48.7504 90.1432 48.5792C90.029 48.3768 89.806 48.3094 89.7904 48.1382C89.6348 46.5455 90.304 46.9709 90.6723 47.5468C90.828 47.7906 90.7605 47.9099 90.7709 48.0189C90.7813 48.1278 90.8695 48.2264 91.3364 48.4287C91.5024 47.9826 91.6217 47.9618 91.3052 47.8944L91.0147 47.9359L91.0199 47.9411Z" fill="#00A651"/>
<path fill-rule="evenodd" clip-rule="evenodd" d="M90.5219 47.6711C90.5738 47.832 90.5738 48.0187 90.5011 48.0343C90.4285 48.0498 90.3922 47.9201 90.3351 47.7593C90.2833 47.5985 90.2262 47.4636 90.304 47.4429C90.3766 47.4273 90.47 47.5051 90.5219 47.6711Z" fill="white"/>
<path fill-rule="evenodd" clip-rule="evenodd" d="M90.9058 48.4079C91.0095 48.5428 91.0718 48.7139 91.0043 48.7606C90.9421 48.8073 90.8643 48.6932 90.7605 48.5635C90.6568 48.4286 90.5634 48.3249 90.6256 48.2782C90.6879 48.2315 90.802 48.2782 90.9058 48.4079Z" fill="white"/>
<path fill-rule="evenodd" clip-rule="evenodd" d="M91.7099 48.5221C91.933 48.491 92.1664 48.548 92.1664 48.6622C92.1664 48.7763 91.99 48.7504 91.7669 48.7815C91.5439 48.8126 91.3571 48.8852 91.3571 48.7711C91.3571 48.657 91.4868 48.5532 91.7099 48.5221Z" fill="white"/>
<path fill-rule="evenodd" clip-rule="evenodd" d="M92.7215 48.1951C92.929 48.0965 93.1677 48.081 93.1988 48.1951C93.2299 48.304 93.0535 48.3352 92.846 48.4286C92.6385 48.5271 92.4829 48.6516 92.4518 48.5479C92.4206 48.4389 92.5192 48.2989 92.7215 48.2003V48.1951Z" fill="white"/>
<path fill-rule="evenodd" clip-rule="evenodd" d="M93.9873 47.7905C94.2623 47.8164 94.5217 47.9306 94.4906 48.0395C94.4594 48.1484 94.2571 48.0395 93.9822 48.0136C93.7072 47.9876 93.4686 48.0499 93.4997 47.9409C93.5308 47.832 93.7124 47.7594 93.9873 47.7853V47.7905Z" fill="white"/>
<path fill-rule="evenodd" clip-rule="evenodd" d="M93.9977 48.2315C94.2727 48.2418 94.5373 48.3404 94.5165 48.4545C94.4906 48.5687 94.2831 48.4701 94.0081 48.4545C93.7332 48.4442 93.5205 48.5064 93.5464 48.3975C93.5723 48.2833 93.728 48.2159 94.0029 48.2315H93.9977Z" fill="white"/>
<path fill-rule="evenodd" clip-rule="evenodd" d="M94.9004 48.6516C94.9367 48.9421 94.724 49.6528 94.6151 49.6476C94.5062 49.6424 94.7344 48.994 94.6929 48.7034C94.6566 48.4129 94.558 48.2002 94.667 48.2054C94.7759 48.2106 94.8641 48.361 94.9004 48.6516Z" fill="white"/>
<path fill-rule="evenodd" clip-rule="evenodd" d="M90.5064 48.8229C90.3663 48.6517 90.2937 48.4442 90.3819 48.4027C90.47 48.3612 90.5271 48.5272 90.662 48.6984C90.8021 48.8696 90.9681 48.9785 90.8799 49.02C90.7917 49.0615 90.6412 48.9941 90.5012 48.8229H90.5064Z" fill="white"/>
<path fill-rule="evenodd" clip-rule="evenodd" d="M91.7618 49.3364C91.5076 49.3779 91.2482 49.3209 91.2689 49.1704C91.2897 49.02 91.492 49.0667 91.7462 49.0252C92.0004 48.9837 92.2183 48.854 92.1975 49.0044C92.1768 49.1549 92.0108 49.2949 91.7618 49.3364Z" fill="white"/>
<path fill-rule="evenodd" clip-rule="evenodd" d="M93.012 48.9112C92.7734 49.0253 92.514 49.046 92.4985 48.9215C92.4829 48.797 92.6852 48.7815 92.9239 48.6673C93.1625 48.5532 93.3078 48.4028 93.3233 48.5324C93.3389 48.657 93.2455 48.8022 93.0069 48.9163L93.012 48.9112Z" fill="white"/>
<path fill-rule="evenodd" clip-rule="evenodd" d="M89.9461 47.8787C89.9824 48.0447 90.0654 48.1951 90.1484 48.1588C90.2314 48.1225 90.1951 47.9928 90.1536 47.8216C90.1173 47.6556 90.0913 47.5103 90.0083 47.5466C89.9253 47.5829 89.9046 47.7126 89.9409 47.8787H89.9461Z" fill="white"/>
<path d="M92.2598 44.5066C93.2922 44.5066 94.226 44.9527 94.9004 45.6738C95.5748 46.3898 95.9898 47.3858 95.995 48.4804C95.995 49.5803 95.5748 50.5711 94.9004 51.2922C94.226 52.0133 93.2922 52.4543 92.2598 52.4595C91.2274 52.4595 90.2936 52.0133 89.6192 51.2922C88.9448 50.5763 88.5298 49.5803 88.5246 48.4856C88.5246 47.3858 88.9448 46.395 89.6192 45.6738C90.2936 44.9527 91.2274 44.5118 92.2598 44.5066ZM92.2598 45.3781C91.4557 45.3781 90.7294 45.7257 90.2003 46.286C89.6711 46.8463 89.3443 47.6245 89.3443 48.4804C89.3443 49.3364 89.6711 50.1146 90.2003 50.6749C90.7294 51.2352 91.4557 51.5827 92.2598 51.5827C93.0639 51.5827 93.7902 51.2352 94.3194 50.6749C94.8485 50.1146 95.1754 49.3364 95.1754 48.4804C95.1754 47.6245 94.8485 46.8463 94.3194 46.286C93.7902 45.7257 93.0639 45.3781 92.2598 45.3781Z" fill="#00A651"/>
</g>
<defs>
<clipPath id="clip0_81_362">
<rect width="100" height="100" fill="white" transform="translate(0 0.291016)"/>
</clipPath>
</defs>
</svg>
