<svg width="100" height="31" viewBox="0 0 100 31" fill="none" xmlns="http://www.w3.org/2000/svg">
<g clip-path="url(#clip0_81_323)">
<path d="M49.2837 19.3947H45.3673V22.1821H49.1355V23.3817H45.3673V26.2397H49.3896V27.4393H44.0688V18.2021H49.2837V19.3947Z" fill="#00A24E"/>
<path d="M52.2687 18.2021H53.4683V27.4393H52.2687V18.2021Z" fill="#00A24E"/>
<path d="M58.1046 24.5744H62.3809C62.3809 22.3304 61.3295 21.2437 59.7347 21.2437C58.1398 21.2437 56.912 22.4786 56.912 24.3204C56.912 25.9857 57.9634 27.5453 59.8476 27.5453C60.8637 27.5453 61.5129 27.2912 62.2751 26.8184V25.6611C61.5482 26.1269 60.8637 26.388 60.1369 26.388C58.9796 26.388 58.288 25.774 58.1116 24.5744H58.1046ZM59.7699 22.2598C60.6026 22.2598 61.146 22.8385 61.1813 23.7841H58.1398C58.288 22.8032 58.8314 22.2598 59.7699 22.2598Z" fill="#00A24E"/>
<path d="M69.9668 22.9443C69.2753 22.4715 68.8095 22.3304 68.3014 22.3304C67.1794 22.3304 66.4526 23.1631 66.4526 24.398C66.4526 25.6329 67.25 26.4232 68.4779 26.4232C68.9859 26.4232 69.494 26.2751 70.108 26.0281V27.1854C69.6704 27.3688 68.9154 27.5453 68.2944 27.5453C66.4808 27.5453 65.2177 26.2751 65.2177 24.5038C65.2177 22.5139 66.375 21.2437 68.1885 21.2437C68.9154 21.2437 69.3811 21.3918 69.9668 21.6459V22.9514V22.9443Z" fill="#00A24E"/>
<path d="M75.3651 21.3566H77.2846V22.4433H75.3651V25.5553C75.3651 26.2468 75.8732 26.4585 76.2331 26.4585C76.6706 26.4585 77.1011 26.3104 77.6092 26.021V27.143C77.1716 27.3618 76.5224 27.5382 76.1273 27.5382C74.8218 27.5382 74.1726 26.7055 74.1726 25.6188V22.4292H73.1211V22.281L75.3651 20.0723V21.3425V21.3566Z" fill="#00A24E"/>
<path d="M81.6174 21.3566V22.7679C82.2313 21.6812 82.8099 21.2437 83.3886 21.2437C83.8614 21.2437 84.3271 21.4624 84.8352 21.9352L84.1789 22.9866C83.819 22.6268 83.3462 22.408 83.0569 22.408C82.2242 22.408 81.6103 23.2407 81.6103 24.2568V27.4465H80.4177V21.3636H81.6103L81.6174 21.3566Z" fill="#00A24E"/>
<path d="M88.2436 21.3564H89.4361V27.4393H88.2436V21.3564Z" fill="#00A24E"/>
<path d="M97.2055 22.9443C96.521 22.4715 96.0482 22.3304 95.5401 22.3304C94.4181 22.3304 93.6913 23.1631 93.6913 24.398C93.6913 25.6329 94.4887 26.4232 95.7166 26.4232C96.2246 26.4232 96.7327 26.2751 97.3467 26.0281V27.1854C96.9091 27.3688 96.1541 27.5453 95.5331 27.5453C93.7195 27.5453 92.4564 26.2751 92.4564 24.5038C92.4564 22.5139 93.6137 21.2437 95.4272 21.2437C96.1541 21.2437 96.6198 21.3918 97.1985 21.6459V22.9514L97.2055 22.9443Z" fill="#00A24E"/>
<path d="M11.3824 4.63916C9.09604 3.623 7.72705 3.27016 6.40039 3.27016C4.97495 3.27016 4.06464 3.77824 4.06464 4.54036C4.06464 6.92551 12.0951 6.26924 12.0951 11.7523C12.0951 14.7514 9.55472 16.5296 6.04756 16.5296C3.25312 16.5296 1.88413 15.8169 0.35989 15.0054V11.597C2.59685 13.1213 3.96585 13.6293 5.74413 13.6293C7.26837 13.6293 8.07988 13.1213 8.07988 12.1545C8.07988 9.6141 0 10.5315 0 4.89319C0 2.14815 2.38515 0.369873 6.04756 0.369873C7.82584 0.369873 9.39948 0.722706 11.3824 1.59068V4.63916Z" fill="#00A24E"/>
<path d="M22.666 15.8169C21.297 16.2756 20.175 16.5296 19.0601 16.5296C15.2989 16.5296 12.8643 14.3421 12.8643 10.9902C12.8643 7.63825 15.4047 5.45068 18.9119 5.45068C19.9774 5.45068 21.4029 5.70472 22.5178 6.16341V8.65441C21.6005 8.19573 20.5843 7.89229 19.7728 7.89229C17.7405 7.89229 16.4703 9.11309 16.4703 10.9902C16.4703 12.8672 17.7405 14.1374 19.674 14.1374C20.4855 14.1374 21.1982 13.9328 22.6731 13.3753V15.8169H22.666Z" fill="#00A24E"/>
<path d="M31.3527 14.4973V10.228C31.3527 8.65434 30.6894 7.89222 29.6238 7.89222C28.8617 7.89222 28.1984 8.4003 27.3869 9.51526V16.3249H24.035V0.574463H27.3869V7.2289H27.4363C28.403 6.0081 29.4686 5.45062 30.7882 5.45062C32.7711 5.45062 34.6976 6.62202 34.6976 9.51526V13.8339C33.5826 13.8339 32.2066 14.2432 31.3457 14.4973H31.3527Z" fill="#00A24E"/>
<path d="M36.2783 13.6294V5.65533H39.6302V7.17957C40.6958 5.95876 41.7613 5.45068 43.1374 5.45068C44.8098 5.45068 46.9974 6.41745 46.9974 9.51532V16.325H43.6455V9.81876C43.6455 8.29452 42.9328 7.68765 41.966 7.68765C41.1545 7.68765 40.5405 8.14633 39.6302 9.46593V14.1374C38.5153 13.834 37.3439 13.7282 36.2783 13.6294Z" fill="#00A24E"/>
<path d="M53.9623 5.45068C50.6598 5.45068 48.324 7.78644 48.324 11.0396C48.324 14.2927 50.7656 16.5296 54.5268 16.5296C55.3878 16.5296 57.3707 16.5296 59.3042 15.1042V13.0225C57.7306 14.1374 56.665 14.5467 55.3384 14.5467C53.2566 14.5467 51.937 13.4318 51.8312 11.5476H59.4524C59.657 7.63825 57.0672 5.45068 53.9623 5.45068ZM51.8806 9.76936C52.0358 8.29452 52.8968 7.43361 54.2163 7.43361C55.5359 7.43361 56.4039 8.35097 56.5027 9.76936H51.8806Z" fill="#00A24E"/>
<path d="M60.772 5.65527H64.1239V16.325H60.772V5.65527Z" fill="#00A24E"/>
<path d="M73.4246 0.574463V6.11395C72.5566 5.70466 71.6463 5.45062 70.6796 5.45062C67.6311 5.45062 65.5 7.68758 65.5 10.9901C65.5 14.2926 67.6311 16.5296 70.482 16.5296C71.5969 16.5296 72.5143 16.2261 73.4317 15.464V16.3249H76.7836V0.574463H73.4317H73.4246ZM73.4246 13.4246C72.7613 14.0386 72.1544 14.2856 71.4417 14.2856C69.868 14.2856 68.8519 12.966 68.8519 11.0324C68.8519 8.89427 69.868 7.68052 71.5475 7.68052C72.1544 7.68052 72.9659 7.93456 73.4246 8.2874V13.4176V13.4246Z" fill="#00A24E"/>
<path d="M83.8402 5.45068C80.5377 5.45068 78.202 7.78644 78.202 11.0396C78.202 14.2927 80.6436 16.5296 84.4048 16.5296C85.2163 16.5296 87.2486 16.5296 89.1821 15.1042V13.0225C87.6085 14.1374 86.5359 14.5467 85.2163 14.5467C83.0781 14.5467 81.815 13.4318 81.6597 11.5476H89.3303C89.4856 7.63825 86.9452 5.45068 83.8402 5.45068ZM81.7585 9.76936C81.9067 8.29452 82.7253 7.43361 84.0449 7.43361C85.3645 7.43361 86.2254 8.35097 86.3806 9.76936H81.7585Z" fill="#00A24E"/>
<path d="M94.3617 8.70381H94.4111C95.3779 6.46684 96.4928 5.45068 97.8195 5.45068C98.4757 5.45068 99.0403 5.70472 100.007 6.41745L99.0897 9.36713C98.2288 8.80966 97.6642 8.60501 97.1068 8.60501C95.886 8.60501 95.0744 9.77642 94.3617 11.7029V16.325H91.0098V5.65533H94.3617V8.70381Z" fill="#00A24E"/>
<path d="M64.2791 1.13209C64.5826 1.993 64.0251 3.16441 63.009 3.72188C61.9928 4.32876 60.9272 4.13117 60.6167 3.3126C60.3133 2.50108 60.8708 1.32967 61.8869 0.722801C62.9031 0.115928 63.9687 0.313515 64.2721 1.13209H64.2791Z" fill="#00A24E"/>
<path d="M89.5067 19.176C89.6126 19.4653 89.4009 19.8676 89.0339 20.0793C88.674 20.298 88.3071 20.2274 88.2012 19.9311C88.0954 19.6417 88.2718 19.2466 88.6388 19.0278C88.9986 18.8091 89.3656 18.8796 89.5067 19.1689V19.176Z" fill="#00A24E"/>
<path d="M28.2972 18.4279C31.7903 14.7938 36.7652 13.6576 39.3691 15.8946C41.973 18.1316 41.2532 22.9089 37.7602 26.536C34.2671 30.1632 29.2922 31.2993 26.6883 29.0694C24.0844 26.8324 24.8042 22.0551 28.2972 18.4279Z" fill="#00A24E"/>
<path d="M30.7812 27.0865H27.274L27.8315 24.9413L29.7862 24.9625C30.0967 24.9625 30.506 24.7508 30.5695 24.4473L31.4304 20.6509C31.7833 19.0843 33.738 17.8494 35.3398 17.8494H38.8046L38.346 19.7899L36.5253 19.8111C36.116 19.8111 35.982 19.9099 35.8902 20.2345L34.7965 24.3556C34.3801 25.9222 32.3972 27.0936 30.7742 27.0936L30.7812 27.0865Z" fill="#00A24E"/>
<path d="M26.3214 21.1661C26.5683 20.7074 26.8577 20.2487 27.1893 19.7971H29.2075L28.763 21.1661H26.3284H26.3214Z" fill="white"/>
<path d="M25.3405 23.7699C25.4393 23.3182 25.5734 22.8596 25.7498 22.4009H28.5513L28.1067 23.7699H25.3334H25.3405Z" fill="white"/>
<path d="M39.9478 23.5513C39.7149 24.01 39.4397 24.4757 39.1221 24.9203H36.4194L36.864 23.5513H39.9407H39.9478Z" fill="white"/>
<path d="M40.851 20.9473C40.7664 21.3989 40.6464 21.8576 40.477 22.3163H37.0687L37.5132 20.9473H40.851Z" fill="white"/>
<path d="M30.7812 27.0865H27.274L27.8315 24.9413L29.7862 24.9625C30.0967 24.9625 30.506 24.7508 30.5695 24.4473L31.4304 20.6509C31.7833 19.0843 33.738 17.8494 35.3398 17.8494H38.8046L38.346 19.7899L36.5253 19.8111C36.116 19.8111 35.982 19.9099 35.8902 20.2345L34.7965 24.3556C34.3801 25.9222 32.3972 27.0936 30.7742 27.0936L30.7812 27.0865Z" fill="white"/>
</g>
<defs>
<clipPath id="clip0_81_323">
<rect width="100" height="29.8426" fill="white" transform="translate(0 0.369873)"/>
</clipPath>
</defs>
</svg>
