<svg width="100" height="21" viewBox="0 0 100 21" fill="none" xmlns="http://www.w3.org/2000/svg">
<g clip-path="url(#clip0_81_357)">
<path fill-rule="evenodd" clip-rule="evenodd" d="M0.0487515 9.12464V7.79442C1.35112 7.91978 3.48226 8.05907 4.23791 8.05907H4.43291C6.01734 8.05907 6.62674 7.7387 6.62674 7.09448C6.62674 5.3638 0.00348218 7.29994 0.00348218 3.75848C-7.9515e-08 1.27563 2.86242 1.17116 4.83337 1.17116C5.68653 1.17116 7.67141 1.28608 8.70564 1.42189V2.72773C6.92621 2.56755 6.10092 2.52228 5.20946 2.52228H5.00052C3.13751 2.52228 2.76143 2.95756 2.76143 3.43811C2.76143 5.1096 9.32549 3.22918 9.32549 6.71492C9.32549 8.98535 6.65808 9.37536 4.78462 9.37536C3.34645 9.37536 1.95703 9.30572 0.0452693 9.12464H0.0487515ZM13.0968 5.39862V5.81301H16.788V5.39862C16.788 4.6186 16.4815 4.09278 14.9493 4.09278C13.4171 4.09278 13.0968 4.6186 13.0968 5.39862ZM19.2116 6.86814H13.1107V7.03877C13.1107 8.33417 14.3399 8.34461 15.5483 8.34461C16.7566 8.34461 18.1182 8.21925 18.5813 8.14961V9.26045C17.3869 9.41018 16.4746 9.47983 15.5344 9.47983C11.1641 9.47983 10.5652 8.10434 10.5652 6.55822V5.93837C10.5652 4.75789 11.2094 3.11774 14.9145 3.11774C18.6196 3.11774 19.2395 4.51761 19.2395 5.85828V5.94882L19.2151 6.86465L19.2116 6.86814ZM31.901 9.29875V5.81301C31.901 4.91807 31.7652 4.47234 30.7065 4.47234C30.219 4.47234 29.1848 4.75789 28.6834 4.89718C28.7077 5.05736 28.7321 5.23148 28.7321 5.42648V9.30223H26.2702V5.81649C26.2702 4.92155 26.1378 4.47583 25.0757 4.47583C24.7345 4.47583 24.1634 4.59074 23.1013 4.91111V9.30223H20.6533V3.27793H22.9307V3.90822C23.2476 3.78286 25.1837 3.17346 26.3885 3.17346C27.3009 3.17346 27.959 3.41374 28.3491 3.96393C28.9828 3.71321 30.919 3.17346 32.0159 3.17346C33.4993 3.17346 34.342 3.89429 34.342 5.41952V9.29527H31.894L31.901 9.29875ZM47.4492 9.29875V5.81301C47.4492 4.91807 47.3134 4.47234 46.2548 4.47234C45.7673 4.47234 44.7331 4.75789 44.2316 4.89718C44.256 5.05736 44.2804 5.23148 44.2804 5.42648V9.30223H41.8184V5.81649C41.8184 4.92155 41.6826 4.47583 40.624 4.47583C40.2828 4.47583 39.7117 4.59074 38.6496 4.91111V9.30223H36.2015V3.27793H38.4789V3.90822C38.7958 3.78286 40.732 3.17346 41.9368 3.17346C42.8492 3.17346 43.5073 3.41374 43.8973 3.96393C44.5311 3.71321 46.4672 3.17346 47.5642 3.17346C49.0476 3.17346 49.8903 3.89429 49.8903 5.41952V9.29527H47.4423L47.4492 9.29875ZM53.9541 5.39862V5.81301H57.6453V5.39862C57.6453 4.6186 57.3423 4.09278 55.8067 4.09278C54.271 4.09278 53.9576 4.6186 53.9576 5.39862H53.9541ZM60.0689 6.86814H53.968V7.03877C53.968 8.33417 55.1973 8.34461 56.4021 8.34461C57.607 8.34461 58.972 8.21925 59.4352 8.14961V9.26045C58.2442 9.41018 57.3284 9.47983 56.3917 9.47983C52.018 9.47983 51.4225 8.10434 51.4225 6.55822V5.93837C51.4225 4.75789 52.0667 3.11774 55.7684 3.11774C59.47 3.11774 60.0933 4.51761 60.0933 5.85828V5.94882L60.0689 6.86465V6.86814ZM61.5141 0.561768H63.9482V9.29875H61.5141V0.561768ZM70.0178 4.5977C69.3979 4.5977 68.799 4.81709 68.409 5.09218L68.3114 5.16183V9.29875H65.853V3.27793H68.1791V4.16242C68.5935 3.75152 68.9208 3.47642 69.3352 3.31275C69.6765 3.18391 70.1884 3.16301 70.5784 3.16301C70.8082 3.16301 70.9928 3.17346 71.0659 3.17346V4.60467L70.0178 4.59074V4.5977ZM76.3485 4.20769C74.4855 4.20769 74.3009 4.88325 74.3009 6.28312C74.3009 7.68298 74.482 8.35854 76.3485 8.35854C78.215 8.35854 78.3961 7.6795 78.3961 6.28312C78.3961 4.88673 78.215 4.20769 76.3485 4.20769ZM80.9903 6.45375C80.9903 7.63423 80.8789 9.46938 76.3624 9.46938C71.8459 9.46938 71.7241 7.63423 71.7241 6.45375V6.109C71.7241 4.93897 71.832 3.09337 76.3624 3.09337C80.8928 3.09337 80.9903 4.93897 80.9903 6.109V6.45375ZM87.3072 4.32261C85.0298 4.32261 84.786 5.02254 84.786 6.12293V6.61393C84.786 7.87451 85.566 8.21577 87.4151 8.21577C88.2056 8.21577 89.3164 8.09041 89.898 8.03469V9.16991C89.7761 9.18036 88.0001 9.42063 86.7187 9.42063C83.407 9.42063 82.1882 8.35506 82.1882 6.6592V5.88962C82.1882 3.62964 84.3333 3.11774 86.4262 3.11774C88.1081 3.11774 89.7761 3.3824 89.898 3.40329V4.51413C89.7656 4.50368 88.3275 4.31912 87.3037 4.31912L87.3072 4.32261ZM96.8207 9.29875L93.8016 6.34232H93.523V9.29875H91.0262V0.561768H93.523V5.74337H93.7772L97.0401 3.28141H99.8642L96.1382 5.83739L100 9.29875H96.8207Z" fill="#00A65D"/>
<path fill-rule="evenodd" clip-rule="evenodd" d="M30.2852 18.2933C29.634 18.2933 29.1256 18.1436 28.7008 17.7362L29.0769 17.3601C29.3833 17.6804 29.7977 17.8093 30.2782 17.8093C30.9155 17.8093 31.3055 17.5829 31.3055 17.1268C31.3055 16.789 31.107 16.6009 30.6613 16.5626L30.0275 16.5069C29.2753 16.4442 28.8749 16.1065 28.8749 15.4727C28.8749 14.7658 29.4704 14.3444 30.2956 14.3444C30.8458 14.3444 31.3403 14.4768 31.6851 14.7588L31.316 15.1279C31.0409 14.9155 30.6891 14.8215 30.2887 14.8215C29.7246 14.8215 29.4251 15.0653 29.4251 15.4588C29.4251 15.7861 29.6131 15.9846 30.1006 16.0229L30.7205 16.0786C31.396 16.1413 31.8592 16.4024 31.8592 17.1233C31.8592 17.8441 31.2254 18.3003 30.2922 18.3003L30.2852 18.2933ZM33.9625 18.248C33.3043 18.248 32.9735 17.7849 32.9735 17.2138V14.8459H32.486V14.4141H32.9735V13.2057H33.5376V14.4141H34.3594V14.8459H33.5376V17.1999C33.5376 17.5516 33.7013 17.764 34.0635 17.764H34.3594V18.2515H33.959L33.9625 18.248ZM37.6954 15.3996C37.5457 15.0478 37.201 14.818 36.7935 14.818C36.3861 14.818 36.0414 15.0444 35.8916 15.3996C35.8046 15.612 35.7907 15.7304 35.7732 16.0438H37.8138C37.7964 15.7304 37.7825 15.612 37.6954 15.3996ZM35.7732 16.4651C35.7732 17.3113 36.1737 17.7988 36.9119 17.7988C37.3577 17.7988 37.6188 17.6665 37.9253 17.3601L38.3083 17.6978C37.9148 18.0913 37.5562 18.2933 36.898 18.2933C35.8777 18.2933 35.2091 17.6804 35.2091 16.3154C35.2091 15.0687 35.815 14.3375 36.7935 14.3375C37.7721 14.3375 38.378 15.0583 38.378 16.204V16.4616H35.7732V16.4651ZM39.5794 14.3862H40.1435V18.2446H39.5794V14.3862ZM44.0332 18.248V15.8697C44.0332 15.1871 43.664 14.8424 43.0825 14.8424C42.501 14.8424 42.1249 15.1941 42.1249 15.8697V18.248H41.5608V14.3897H42.1249V14.8145C42.4 14.5011 42.7761 14.3444 43.2079 14.3444C43.6397 14.3444 43.96 14.4698 44.1968 14.7066C44.4719 14.9747 44.5973 15.3334 44.5973 15.7826V18.255H44.0332V18.248ZM47.491 16.4616V17.8441H47.0279V16.4616H45.6454V16.0229H47.0279V14.6578H47.491V16.0229H48.8631V16.4616H47.491ZM51.3981 14.8424C50.5589 14.8424 50.4266 15.5667 50.4266 16.3189C50.4266 17.071 50.5589 17.7919 51.3981 17.7919C52.2374 17.7919 52.3627 17.071 52.3627 16.3189C52.3627 15.5667 52.2374 14.8424 51.3981 14.8424ZM52.3697 18.248V17.7849C52.0563 18.1923 51.6976 18.2968 51.2728 18.2968C50.8793 18.2968 50.5345 18.1645 50.3291 17.959C49.9356 17.5655 49.859 16.9248 49.859 16.3189C49.859 15.713 49.9391 15.0722 50.3291 14.6787C50.5345 14.4768 50.8793 14.3444 51.2728 14.3444C51.6976 14.3444 52.0493 14.4385 52.3627 14.8389V12.666H52.9268V18.2515H52.3697V18.248ZM56.6146 15.3996C56.4648 15.0478 56.1201 14.818 55.7127 14.818C55.3052 14.818 54.9605 15.0444 54.8107 15.3996C54.7237 15.612 54.7098 15.7304 54.6923 16.0438H56.7329C56.7155 15.7304 56.7016 15.612 56.6146 15.3996ZM54.6923 16.4651C54.6923 17.3113 55.0928 17.7988 55.831 17.7988C56.2803 17.7988 56.5379 17.6665 56.8444 17.3601L57.2309 17.6978C56.8374 18.0913 56.4787 18.2933 55.8206 18.2933C54.8003 18.2933 54.1352 17.6804 54.1352 16.3154C54.1352 15.0687 54.7376 14.3375 55.7196 14.3375C56.7016 14.3375 57.304 15.0583 57.304 16.204V16.4616H54.6993L54.6923 16.4651ZM59.7138 18.2933C59.0626 18.2933 58.5542 18.1436 58.1293 17.7362L58.5054 17.3601C58.8119 17.6804 59.2262 17.8093 59.7033 17.8093C60.3371 17.8093 60.7306 17.5829 60.7306 17.1268C60.7306 16.789 60.5356 16.6009 60.0864 16.5626L59.4526 16.5069C58.7004 16.4442 58.3 16.1065 58.3 15.4727C58.3 14.7658 58.8954 14.3444 59.7207 14.3444C60.2674 14.3444 60.7654 14.4768 61.1102 14.7588L60.741 15.1279C60.4659 14.9155 60.1142 14.8215 59.7138 14.8215C59.1496 14.8215 58.8502 15.0653 58.8502 15.4588C58.8502 15.7861 59.0382 15.9846 59.5257 16.0229L60.1456 16.0786C60.8211 16.1413 61.2843 16.4024 61.2843 17.1233C61.2843 17.8441 60.6505 18.3003 59.7138 18.3003V18.2933ZM62.3881 14.3862H62.9523V18.2446H62.3881V14.3862ZM65.6963 14.8424C64.8571 14.8424 64.7317 15.5667 64.7317 16.2841C64.7317 17.0014 64.8571 17.7292 65.6963 17.7292C66.5355 17.7292 66.6539 17.0084 66.6539 16.2841C66.6539 15.5597 66.5355 14.8424 65.6963 14.8424ZM65.6127 20.0205C65.0312 20.0205 64.7108 19.8708 64.3034 19.5017L64.6725 19.1395C64.9546 19.3902 65.1496 19.5226 65.5988 19.5226C66.344 19.5226 66.6574 18.9967 66.6574 18.3386V17.7362C66.344 18.1366 65.9888 18.2376 65.5744 18.2376C65.1809 18.2376 64.8466 18.0983 64.6412 17.8929C64.2581 17.5098 64.1711 16.9109 64.1711 16.2841C64.1711 15.6572 64.2581 15.0618 64.6412 14.6752C64.8466 14.4733 65.1914 14.341 65.5848 14.341C66.0062 14.341 66.3509 14.435 66.6678 14.8424V14.3862H67.225V18.363C67.225 19.3206 66.6295 20.017 65.6162 20.017L65.6127 20.0205ZM71.1007 18.248V15.8697C71.1007 15.1871 70.7316 14.8424 70.1536 14.8424C69.5755 14.8424 69.196 15.1941 69.196 15.8697V18.248H68.6318V14.3897H69.196V14.8145C69.4711 14.5011 69.8471 14.3444 70.2789 14.3444C70.7107 14.3444 71.0311 14.4698 71.2679 14.7066C71.543 14.9747 71.6684 15.3334 71.6684 15.7826V18.255H71.1042L71.1007 18.248ZM40.2062 12.9063C40.2062 13.0943 40.0529 13.2475 39.8649 13.2475C39.6769 13.2475 39.5236 13.0943 39.5236 12.9063C39.5236 12.7182 39.6769 12.565 39.8649 12.565C40.0529 12.565 40.2062 12.7182 40.2062 12.9063ZM62.9975 12.9237C62.9975 13.1117 62.8443 13.2649 62.6563 13.2649C62.4682 13.2649 62.315 13.1117 62.315 12.9237C62.315 12.7356 62.4682 12.5824 62.6563 12.5824C62.8443 12.5824 62.9975 12.7356 62.9975 12.9237ZM75.3352 13.6201C75.3352 14.0345 75.1645 14.4141 74.8929 14.6857C74.6213 14.9573 74.2417 15.1279 73.8274 15.1279C73.413 15.1279 73.0334 14.9573 72.7618 14.6857C72.4902 14.4141 72.3195 14.0345 72.3195 13.6201C72.3195 13.2057 72.4902 12.8262 72.7618 12.5546C73.0334 12.2829 73.413 12.1123 73.8308 12.1123C74.2487 12.1123 74.6248 12.2829 74.8964 12.5546C75.168 12.8262 75.3387 13.2057 75.3387 13.6201H75.3352ZM74.7258 14.5185C74.9556 14.2887 75.0984 13.9718 75.0984 13.6201C75.0984 13.2684 74.9556 12.9515 74.7258 12.7217C74.4959 12.4919 74.1791 12.3491 73.8274 12.3491C73.4756 12.3491 73.1588 12.4919 72.9289 12.7217C72.6991 12.9515 72.5563 13.2684 72.5563 13.6201C72.5563 13.9718 72.6991 14.2887 72.9289 14.5185C73.1588 14.7484 73.4791 14.8911 73.8308 14.8911C74.1825 14.8911 74.4994 14.7484 74.7293 14.5185H74.7258ZM73.9249 12.8819H73.4931V13.4808H73.9249C74.1199 13.4808 74.2522 13.3694 74.2522 13.1814C74.2522 12.9933 74.1199 12.8819 73.9249 12.8819ZM74.2626 14.5394L73.8587 13.7316H73.4931V14.5394H73.2005V12.6207H73.9458C74.3079 12.6207 74.5412 12.8575 74.5412 13.1814C74.5412 13.4565 74.3741 13.6306 74.1582 13.6898L74.6004 14.5394H74.2626Z" fill="#6C6E70"/>
</g>
<defs>
<clipPath id="clip0_81_357">
<rect width="100" height="19.4589" fill="white" transform="translate(0 0.561768)"/>
</clipPath>
</defs>
</svg>
