<svg width="100" height="65" viewBox="0 0 100 65" fill="none" xmlns="http://www.w3.org/2000/svg">
<g clip-path="url(#clip0_81_562)">
<path d="M0 64.132H100V0.450439H0V64.132Z" fill="#1B458F"/>
<path d="M35.952 23.418C40.5634 24.218 45.2603 24.635 50.0425 24.635C54.8247 24.635 59.5217 24.2184 64.0478 23.4172L64.1331 23.7837C59.6069 24.7716 54.8247 25.2911 50.0425 25.2911C45.2603 25.2911 40.4781 24.7716 35.952 23.7853V23.4184V23.418Z" fill="white"/>
<path d="M70.0256 25.6185C63.5353 27.0147 56.8746 27.7504 50.0426 27.7504C43.2106 27.7504 36.4642 27.0143 30.0596 25.6185L30.1448 25.2533C36.5499 26.4635 43.2106 27.0951 50.0426 27.0951C56.8746 27.0951 63.4501 26.4631 69.9404 25.2533L70.0256 25.6185ZM58.4118 22.0186C55.679 22.5518 52.861 22.8314 50.043 22.8314C47.225 22.8314 44.3213 22.5518 41.5889 22.0186L41.6742 21.6506C44.407 21.9969 47.1398 22.1753 50.043 22.1753C52.9462 22.1753 55.5938 21.9969 58.4118 21.6506V22.0186ZM46.2855 12.7874C46.2855 10.6708 47.6519 9.35742 49.2744 9.35742C50.8969 9.35742 52.2633 10.6515 52.2633 12.4085H52.0924C52.0924 10.9758 50.9821 9.91067 49.6161 9.91067C48.2501 9.91067 47.1394 10.9653 47.1394 12.7994V20.0037H46.2851V12.7878L46.2855 12.7874Z" fill="white"/>
<path d="M46.2854 10.4439C46.8832 9.45273 47.9931 8.80024 49.2743 8.80024C51.2385 8.80024 52.861 10.2261 52.861 12.7879V20.0038H53.7152V12.7288C53.7152 9.88424 51.8367 8.22852 49.7016 8.22852C48.1644 8.22852 46.798 9.09957 46.115 10.3672L46.2858 10.4443L46.2854 10.4439Z" fill="white"/>
<path fill-rule="evenodd" clip-rule="evenodd" d="M50.2135 51.3689L51.6651 49.4576V51.3689H50.2135ZM49.9574 51.7787H51.6655V52.9089H52.3485V51.7787H52.9463V51.3689H52.3485V48.8582H51.9216L49.9574 51.4874V51.7791V51.7787ZM56.7038 50.5878C56.3621 50.3861 55.6791 50.221 55.6791 49.7288C55.6791 49.2844 56.0204 49.0711 56.5329 49.0711C56.9598 49.0711 57.2159 49.3025 57.2159 49.7348C57.2159 50.1318 57.0451 50.3865 56.7038 50.5882V50.5878ZM56.0204 50.9365C56.5329 51.1672 57.3015 51.3395 57.3015 51.9792C57.3015 52.4585 56.8746 52.7972 56.3621 52.7972C55.8495 52.7972 55.5078 52.4585 55.5078 51.9792C55.5078 51.4998 55.6787 51.2089 56.0204 50.9365ZM56.8746 50.6348C57.2159 50.4745 57.7285 50.2146 57.7285 49.7646C57.7285 49.1961 57.0451 48.9112 56.4473 48.9112C55.8495 48.9112 55.0809 49.237 55.0809 49.8947C55.0809 50.4211 55.4226 50.6589 55.9351 50.8775C55.4226 51.1262 54.9957 51.393 54.9957 51.9555C54.9957 52.6533 55.6787 52.9563 56.2764 52.9563C57.1307 52.9563 57.8989 52.5822 57.8989 51.8193C57.8989 51.1917 57.3864 50.8839 56.8742 50.6352" fill="white"/>
<path d="M43.6379 52.9089V52.7904C43.2966 52.7904 43.211 52.7542 43.211 52.4995V48.9108H43.0401C42.8693 49.047 42.528 49.403 41.8446 49.5215V49.6457C42.2715 49.6746 42.4424 49.6746 42.4424 49.7698C42.5276 49.8349 42.5276 49.9474 42.5276 50.1371V52.4995C42.5276 52.7542 42.3567 52.7904 42.0154 52.7904V52.9085H43.6379V52.9089ZM48.2493 48.9647H46.8829C46.712 48.9647 46.5416 48.9647 46.3707 48.9534C46.1999 48.9474 46.1999 48.9353 46.1999 48.7871H46.029L45.6873 49.9008H45.7725L45.8578 49.7361C45.943 49.6067 46.0286 49.5244 46.1138 49.5244H47.8215L46.5408 52.0736C46.3699 52.5361 46.1991 52.8788 46.1991 52.9029C46.1991 53.0214 46.3699 53.0154 46.4551 53.0154C46.7112 53.0154 46.7964 52.921 46.8821 52.7366L48.2485 49.1246V48.9643L48.2493 48.9647ZM6.74634 45.1691H44.8339V44.7979H6.74634V45.1691ZM49.0179 45.1691H94.1931V44.7979H49.0179V45.1691Z" fill="white"/>
<path fill-rule="evenodd" clip-rule="evenodd" d="M44.4921 39.7736C44.4921 38.0588 43.2966 36.9198 41.5885 36.9198C39.7952 36.9198 38.5996 38.1134 38.5996 39.7736C38.5996 41.4337 39.7952 42.629 41.5885 42.629C43.211 42.629 44.4921 41.4096 44.4921 39.7736ZM43.2962 39.7736C43.2962 41.1782 42.6984 42.3229 41.5881 42.3229C40.3925 42.3229 39.8804 41.1886 39.8804 39.7736C39.8804 38.3585 40.4782 37.2259 41.5881 37.2259C42.7836 37.2259 43.2962 38.3553 43.2962 39.7736ZM67.3784 38.1966H67.9762C69.5134 38.1966 70.8794 38.328 70.8794 40.1766C70.8794 41.4759 70.1112 42.1875 68.574 42.1875C67.891 42.1875 67.3784 42.0742 67.3784 41.4197V38.1962V38.1966ZM67.3784 34.1415C67.5493 34.1383 67.7201 34.1415 67.891 34.1415C69.9404 34.1415 70.3673 34.9615 70.3673 35.9511C70.3673 37.3344 69.3426 37.8435 68.0618 37.8435H67.3784V34.1415ZM64.9873 42.49C66.0976 42.49 67.1223 42.5406 68.2323 42.5406C69.0865 42.5406 70.1964 42.4771 71.0503 42.0629C71.9898 41.5595 72.3315 40.8841 72.3315 40.1131C72.3315 38.8688 71.392 37.9752 70.1112 37.8246C71.1359 37.5357 71.7337 36.8691 71.7337 35.8378C71.7337 35.1716 71.3068 34.4802 70.6234 34.1776C69.8547 33.8012 69.0009 33.7755 68.0614 33.7883C67.0367 33.8012 66.012 33.8012 64.9869 33.8132V34.0776C65.5847 34.166 66.0116 34.0398 66.0116 34.6815V41.6864C66.0116 42.2019 65.4995 42.2019 64.9869 42.2268V42.4908L64.9873 42.49ZM79.8464 39.7736C79.8464 38.0588 78.6509 36.9198 76.8576 36.9198C75.0643 36.9198 73.8687 38.1134 73.8687 39.7736C73.8687 41.4337 75.1499 42.629 76.8576 42.629C78.5653 42.629 79.8464 41.4096 79.8464 39.7736ZM78.5653 39.7736C78.5653 41.1782 77.9675 42.3229 76.8576 42.3229C75.7477 42.3229 75.1499 41.1886 75.1499 39.7736C75.1499 38.3585 75.7477 37.2259 76.8576 37.2259C78.0531 37.2259 78.5653 38.3553 78.5653 39.7736Z" fill="white"/>
<path d="M5.80688 34.0767C6.14858 34.0767 6.49028 34.1675 6.74636 34.4026C6.91721 34.6332 7.17328 35.1017 7.42976 35.7995L10.2478 42.6655H10.6747L13.3219 35.6991C13.6636 34.8803 14.0049 34.0767 14.9444 34.0767V33.8124H12.0411V34.0767C12.2972 34.0767 12.7241 34.051 12.9806 34.4677C13.0658 34.6947 13.0658 35.1716 12.7245 36.0635L11.0164 40.8165H10.9312L8.79616 35.3592C8.79616 35.2845 8.62531 34.8293 8.62531 34.5806C8.71053 34.1888 9.22308 34.0763 9.65001 34.0763V33.812H5.80728V34.0759L5.80688 34.0767ZM21.0077 33.6999C20.4099 33.8754 19.6413 34.1278 18.9583 34.2784V34.4295C19.2996 34.4423 19.4705 34.5171 19.5561 34.6183C19.8122 34.7943 19.8122 35.096 19.8122 35.4106V41.5598C19.8122 42.2131 19.6413 42.2131 18.9579 42.2513V42.4903H21.7759V42.2513C21.1782 42.2135 21.0077 42.2135 21.0077 41.5598V33.6999ZM24.9361 33.6999C24.3383 33.8754 23.5697 34.1278 22.9719 34.2784V34.4295C23.228 34.4423 23.3988 34.5171 23.5697 34.6183C23.7405 34.7943 23.7405 35.096 23.7405 35.4106V41.5598C23.7405 42.2131 23.5697 42.2131 22.9719 42.2513V42.4903H25.7047V42.2513C25.1069 42.2135 24.9361 42.2135 24.9361 41.5598V33.6999ZM36.379 42.4899V42.2509C35.696 42.2131 35.5252 42.2131 35.5252 41.5594V39.1319C35.5252 38.1053 36.0377 37.5473 36.3794 37.5473C36.8063 37.5473 36.8916 38.0439 37.3189 38.0439C37.6602 38.0439 37.9167 37.8217 37.9167 37.477C37.9167 37.0664 37.4897 36.8313 37.0624 36.8313C36.2086 36.8313 35.696 37.5754 35.4399 37.9607V36.8819C34.9278 37.0824 34.2444 37.3468 33.6466 37.5232V37.6485C34.1592 37.8619 34.33 37.8876 34.33 38.3782V41.5594C34.33 42.2127 34.0739 42.2127 33.5614 42.2509V42.4899H36.3794H36.379ZM86.3368 40.9772C85.9951 41.5996 85.3973 42.1536 84.5435 42.1536C83.0919 42.1536 82.6649 40.8563 82.6649 39.6996C82.6649 38.6927 83.0066 37.2259 84.2874 37.2259C84.7996 37.2259 85.3121 37.5766 85.3121 38.1005C85.3121 38.4211 85.5686 38.7301 85.8247 38.7301C86.1664 38.7301 86.4224 38.5123 86.4224 38.2146C86.3372 37.3938 85.3121 36.9197 84.2874 36.9197C82.4941 36.9197 81.3838 38.1588 81.3838 39.8274C81.3838 41.3613 82.4941 42.6289 84.1166 42.6289C85.2269 42.6289 86.0807 42.015 86.5077 41.0399L86.3368 40.9772ZM90.2648 42.4899V42.2509C89.667 42.2131 89.4961 42.2131 89.4961 41.5594V38.2271C89.8374 37.8635 90.0939 37.434 90.9477 37.434C91.7164 37.434 92.0581 38.0636 92.0581 38.8993V41.5594C92.0581 42.2127 91.8872 42.2127 91.3751 42.2509V42.4899H94.1079V42.2509C93.5101 42.2131 93.3392 42.2131 93.3392 41.5594V39.0314C93.3392 37.2391 92.0581 36.9193 91.3751 36.9193C90.5208 36.9193 90.0087 37.3126 89.4965 37.812V33.6995C88.8987 33.9128 88.1301 34.1145 87.5323 34.3407V34.4419C87.8736 34.5167 88.2153 34.63 88.2153 35.0201V41.5594C88.2153 42.2127 88.0445 42.2127 87.4467 42.2509V42.4899H90.2648ZM17.6772 42.4899V42.2509C17.0794 42.2131 16.9085 42.2131 16.9085 41.5594V36.8558C16.3108 37.0696 15.5421 37.2958 14.9444 37.5232V37.6485C15.1152 37.6734 15.2004 37.6863 15.3713 37.7739C15.6274 37.9258 15.6274 38.2773 15.6274 38.5413V41.5594C15.6274 42.2127 15.4565 42.2127 14.8587 42.2509V42.4899H17.6768H17.6772ZM15.5421 35.2194C15.5421 34.8256 15.7982 34.5058 16.2251 34.5058C16.5668 34.5058 16.9081 34.8256 16.9081 35.2194C16.9081 35.6131 16.5668 35.9317 16.2251 35.9317C15.7982 35.9317 15.5421 35.6119 15.5421 35.2194ZM28.5227 38.6723H31.0847C31.0847 37.7233 30.4869 37.2283 29.8891 37.2283C29.2913 37.2283 28.6936 37.7867 28.5227 38.6723ZM28.4375 39.0515C28.3519 39.2548 28.3519 39.4718 28.3519 39.6996C28.3519 41.0202 28.8644 42.1536 30.316 42.1536C30.9138 42.1536 31.6824 41.7105 32.1094 40.9772L32.2802 41.0399C32.0241 41.7422 31.2555 42.6289 29.9743 42.6289C28.2662 42.6289 27.0707 41.5253 27.0707 39.8274C27.0707 38.1295 28.181 36.9197 29.8887 36.9197C31.1699 36.9197 32.1946 37.6393 32.2798 39.0515H28.4371H28.4375ZM47.8224 43.6471L48.2493 42.6294L46.1143 37.9507C45.9434 37.6007 45.7726 37.2962 45.26 37.2962V37.0579H48.1637V37.2962C47.822 37.2962 47.5659 37.3006 47.4807 37.5425C47.4807 37.6429 47.3954 37.8141 47.5659 38.0262L48.9323 41.2067L50.1278 38.3279C50.2131 38.0595 50.2987 37.7208 50.2131 37.5356C50.0422 37.2793 49.7009 37.2966 49.4444 37.2966V37.0579H51.6647V37.2962C51.0669 37.2962 50.8104 37.6658 50.64 38.0636L48.1633 43.8733C47.9072 44.4562 47.5655 45.1939 46.7969 45.1939C46.5408 45.1939 46.2847 44.9544 46.2847 44.6905C46.2847 44.3891 46.4556 44.1878 46.7969 44.175C46.9677 44.1878 47.0529 44.2377 47.2238 44.2505C47.5655 44.2786 47.7359 43.905 47.8216 43.6466M57.4724 37.8775C58.0701 37.3725 58.241 36.9703 58.241 36.5276C58.3262 35.8397 57.9849 35.5971 57.558 35.5971C57.1311 35.5971 56.875 36.0414 56.875 36.3014C56.875 36.6975 57.0458 36.9607 57.2163 37.4127C57.3015 37.5328 57.3871 37.6923 57.4724 37.8775ZM58.5827 41.4437C57.9849 40.6876 57.3015 39.6345 56.7894 38.8482C56.3624 39.332 56.0207 39.9081 56.0207 40.5883C56.0207 41.4843 56.6185 42.0307 57.3019 42.0307C57.8145 42.0307 58.2414 41.7615 58.5831 41.4441L58.5827 41.4437ZM59.607 40.7209C59.5218 40.7904 59.5218 40.8615 59.4365 40.9326C59.5218 41.0134 59.607 41.0869 59.607 41.154C60.0339 41.6048 60.4612 41.9299 61.1442 41.9299C61.4859 41.9299 61.742 41.8166 62.0837 41.4369L62.1689 41.5707C61.9129 42.0432 61.3151 42.6289 60.6317 42.6289C59.9483 42.6289 59.4361 42.3228 58.924 41.8467L58.8388 41.737C58.3262 42.2428 57.7284 42.6289 56.9602 42.6289C55.423 42.6289 54.9104 41.598 54.9104 40.7972C54.9104 39.7237 55.8499 39.0443 56.6185 38.5232C56.4477 38.2592 56.3624 38.0455 56.2768 37.9137C56.106 37.6204 55.9351 37.119 55.9351 36.7911C55.9351 35.9317 56.5329 35.3154 57.5576 35.3154C58.4971 35.3154 59.0948 35.8385 59.0092 36.5846C58.924 37.2319 58.2406 37.7353 57.6428 38.1837C58.0697 38.9306 58.6675 39.9338 59.2653 40.6474C59.2653 40.5907 59.2653 40.5425 59.3505 40.5068C59.5214 40.0909 59.8631 39.477 59.8631 38.8687C59.8631 38.4786 59.607 38.3653 59.2653 38.3653V38.1604H61.4003V38.3653C60.6317 38.3765 60.3756 38.9792 60.1191 39.5461C60.0339 39.8924 59.6922 40.4328 59.607 40.7209Z" fill="white"/>
</g>
<defs>
<clipPath id="clip0_81_562">
<rect width="100" height="63.6816" fill="white" transform="translate(0 0.450439)"/>
</clipPath>
</defs>
</svg>
