<svg width="100" height="33" viewBox="0 0 100 33" fill="none" xmlns="http://www.w3.org/2000/svg">
<path d="M51.6404 9.72939L54.5897 6.77659V14.2239L51.6404 17.1802V9.72939Z" fill="#B11116"/>
<path d="M39.4271 12.6363L42.3728 9.68V14.2203L39.4271 17.1766V12.6363Z" fill="#B11116"/>
<path d="M43.0149 8.11717L46.6909 4.47292V13.5359L43.0149 17.1802V8.11717Z" fill="#B11116"/>
<path d="M47.3259 3.81321L51.0019 0.137207V13.5042L47.3259 17.1766V3.81321Z" fill="#B11116"/>
<path d="M13.8679 19.2475H10.8622L9.53574 25.079H9.50751L8.18458 19.2475H5.66923L4.31454 25.079H4.28632L2.9916 19.2475H0L2.66352 29.8698H5.63748L6.90397 24.2923H6.9322L8.22691 29.8698H11.1127L13.8679 19.2475Z" fill="#231F20"/>
<path fill-rule="evenodd" clip-rule="evenodd" d="M14.1643 29.8698H17.11V22.1474H14.1643V29.8698ZM17.11 19.2475H14.1643V21.3148H17.11V19.2475Z" fill="#231F20"/>
<path fill-rule="evenodd" clip-rule="evenodd" d="M20.7401 25.139C20.8742 24.3064 21.3787 23.8443 22.2571 23.8443C23.0156 23.8443 23.5518 24.4228 23.5518 25.139H20.7401ZM26.3811 26.6701C26.3811 23.6643 25.0582 21.9533 21.9925 21.9533C19.5513 21.9533 17.9143 23.7843 17.9143 26.0315C17.9143 28.6068 19.7735 30.0638 22.243 30.0638C23.9999 30.0638 25.6191 29.2912 26.2153 27.6226H23.4636C23.2273 27.993 22.7051 28.1729 22.2289 28.1729C21.3081 28.1729 20.8001 27.5485 20.726 26.6701H26.3811Z" fill="#231F20"/>
<path d="M30.1736 29.8698V25.7916C30.1736 24.5569 30.8439 24.3029 31.3483 24.3029C32.2127 24.3029 32.315 24.9273 32.315 25.8198V29.8663H35.2607V24.571C35.2607 22.8 33.9977 21.9533 32.6113 21.9533C31.4365 21.9533 30.6463 22.3555 30.096 23.1281H30.0677V22.1474H27.2243V29.8698H30.1736Z" fill="#231F20"/>
<path fill-rule="evenodd" clip-rule="evenodd" d="M38.845 25.139C38.979 24.3064 39.4835 23.8443 40.362 23.8443C41.1204 23.8443 41.6567 24.4228 41.6567 25.139H38.845ZM44.4825 26.6701C44.4825 23.6643 43.1595 21.9533 40.0938 21.9533C37.6526 21.9533 36.0157 23.7843 36.0157 26.0315C36.0157 28.6068 37.8748 30.0638 40.3443 30.0638C42.1012 30.0638 43.7205 29.2912 44.3167 27.6226H41.5649C41.3286 27.993 40.8065 28.1729 40.3302 28.1729C39.4094 28.1729 38.9014 27.5485 38.8273 26.6701H44.4825Z" fill="#231F20"/>
<path d="M45.2057 29.8698H48.1514V26.8182C48.1514 25.1672 48.7758 24.4828 49.9365 24.4828C50.5327 24.4828 50.635 24.5428 50.9349 24.631V22.0274C50.6809 21.9533 50.5327 21.9533 50.2364 21.9533C49.1639 21.9533 48.5395 22.4578 48.0632 23.3821H48.035V22.1474H45.2092V29.8698H45.2057Z" fill="#231F20"/>
<path fill-rule="evenodd" clip-rule="evenodd" d="M57.0733 26.0033C57.0733 26.9241 56.8369 27.9224 55.7786 27.9224C54.7202 27.9224 54.4839 26.9241 54.4839 26.0033C54.4839 25.0825 54.7202 24.0983 55.7786 24.0983C56.8369 24.0983 57.0733 25.0966 57.0733 26.0033ZM51.6404 29.8698H54.4839V29.0231H54.5121C54.8825 29.5135 55.3306 30.0638 56.7734 30.0638C58.9607 30.0638 60.0155 27.9048 60.0155 25.9715C60.0155 24.1547 59.317 21.9533 56.7276 21.9533C55.8492 21.9533 55.0624 22.3414 54.6144 22.994H54.5862V19.244H51.6404V29.8698Z" fill="#231F20"/>
<path fill-rule="evenodd" clip-rule="evenodd" d="M63.4164 25.139C63.5504 24.3064 64.0549 23.8443 64.9333 23.8443C65.6918 23.8443 66.228 24.4228 66.228 25.139H63.4164ZM69.0574 26.6701C69.0574 23.6643 67.7344 21.9533 64.6687 21.9533C62.2275 21.9533 60.5906 23.7843 60.5906 26.0315C60.5906 28.6068 62.4497 30.0638 64.9192 30.0638C66.6761 30.0638 68.2954 29.2912 68.8916 27.6226H66.1398C65.9035 27.993 65.3814 28.1729 64.9051 28.1729C63.9843 28.1729 63.4763 27.5485 63.4022 26.6701H69.0574Z" fill="#231F20"/>
<path d="M69.8123 29.8698H72.7581V26.8182C72.7581 25.1672 73.3825 24.4828 74.5432 24.4828C75.1394 24.4828 75.2417 24.5428 75.5415 24.631V22.0274C75.2875 21.9533 75.1394 21.9533 74.843 21.9533C73.7706 21.9533 73.1461 22.4578 72.6699 23.3821H72.6416V22.1474H69.8158V29.8698H69.8123Z" fill="#231F20"/>
<path fill-rule="evenodd" clip-rule="evenodd" d="M78.9106 25.6293C78.9106 24.8109 79.3269 24.0983 80.1595 24.0983C80.992 24.0983 81.4401 24.7685 81.4401 25.6152C81.4401 26.4619 81.3201 27.4003 80.2335 27.4003C79.147 27.4003 78.9106 26.5078 78.9106 25.6293ZM84.3117 22.1474H81.366V23.0858H81.3378C80.9956 22.2955 80.1771 21.9533 79.3128 21.9533C77.1114 21.9533 75.9649 23.6361 75.9649 25.6435C75.9649 27.6508 76.9915 29.2877 79.2669 29.2877C80.1454 29.2877 80.858 28.8996 81.3342 28.2152H81.3625V28.9279C81.3625 29.5664 81.1543 30.6988 80.2018 30.6988C79.6056 30.6988 79.2634 30.4448 79.1752 29.8663H76.2577C76.5258 31.9512 78.459 32.4416 80.29 32.4416C83.906 32.4416 84.3082 30.2826 84.3082 28.7515V22.1438L84.3117 22.1474Z" fill="#231F20"/>
<path fill-rule="evenodd" clip-rule="evenodd" d="M87.896 25.139C88.0301 24.3064 88.5345 23.8443 89.413 23.8443C90.1715 23.8443 90.7077 24.4228 90.7077 25.139H87.896ZM93.5335 26.6701C93.5335 23.6643 92.2105 21.9533 89.1449 21.9533C86.7036 21.9533 85.0667 23.7843 85.0667 26.0315C85.0667 28.6068 86.9258 30.0638 89.3953 30.0638C91.1522 30.0638 92.7715 29.2912 93.3677 27.6226H90.616C90.3796 27.993 89.8575 28.1729 89.3812 28.1729C88.4569 28.1729 87.9524 27.5485 87.8784 26.6701H93.5335Z" fill="#231F20"/>
<path d="M94.2743 29.8698H97.2201V26.8182C97.2201 25.1672 97.8445 24.4828 99.0052 24.4828C99.6014 24.4828 99.7037 24.5428 100.004 24.631V22.0274C99.7495 21.9533 99.6014 21.9533 99.305 21.9533C98.2326 21.9533 97.6081 22.4578 97.1319 23.3821H97.1037V22.1474H94.2778V29.8698H94.2743Z" fill="#231F20"/>
</svg>
