<svg width="100" height="9" viewBox="0 0 100 9" fill="none" xmlns="http://www.w3.org/2000/svg">
<g clip-path="url(#clip0_81_394)">
<path fill-rule="evenodd" clip-rule="evenodd" d="M6.25624 8.09671H4.091L2.14528 4.99155L1.79405 5.5144V8.09671H0V0.45752H1.79206V3.85405L4.07504 0.45752H6.15047L3.60607 4.00172L6.25624 8.09671ZM6.77909 8.09671V0.45752H11.6045V1.91432H8.56117V3.25337H11.365V4.71016H8.56117V6.63792H11.6045V8.09472H6.77909V8.09671ZM18.5791 8.09671H16.4718L14.558 5.29488H13.9373V8.09671H12.2191V0.45752H14.987C15.3682 0.45752 15.7015 0.483463 15.9828 0.535349C16.2662 0.58923 16.5296 0.698989 16.7691 0.86662C17.0166 1.04024 17.2121 1.26375 17.3558 1.53116C17.4995 1.80057 17.5733 2.13982 17.5733 2.55491C17.5733 3.13962 17.4556 3.61457 17.2181 3.97778C16.9806 4.34297 16.6633 4.63034 16.2662 4.84587L18.5811 8.09472L18.5791 8.09671ZM15.3682 1.98017C15.2604 1.92828 15.1387 1.89835 15.007 1.88438C14.8753 1.87041 14.7096 1.86243 14.5141 1.86243H13.9373V3.91791H14.4303C14.6717 3.91791 14.8753 3.90194 15.0429 3.86802C15.2105 3.83609 15.3542 3.76624 15.47 3.66047C15.9609 3.21545 16.0208 2.29149 15.3682 1.97817V1.98017ZM18.4115 8.09671L20.8222 0.45752H22.7779L25.1886 8.09671H23.3426L22.8936 6.53615H20.6546L20.2075 8.09671H18.4095H18.4115ZM22.5045 5.15119L21.7761 2.63473L21.0457 5.15119H22.5025H22.5045ZM34.0052 8.09671H32.0475V3.03385L30.6206 6.30266H29.2796L27.8527 3.03385V8.09671H26.0008V0.45752H28.2678L30.004 4.22723L31.7362 0.45752H34.0052V8.09671ZM34.7136 8.09671L37.1243 0.45752H39.08L41.4907 8.09671H39.6448L39.1958 6.53615H36.9567L36.5097 8.09671H34.7116H34.7136ZM38.8066 5.15119L38.0782 2.63473L37.3478 5.15119H38.8046H38.8066ZM52.9775 8.09671H51.0058V3.03385L49.5689 6.30266H48.2179L46.7811 3.03385V8.09671H44.9152V0.45752H47.1982L48.9483 4.22723L50.6925 0.45752H52.9775V8.09671ZM53.7278 8.09671L56.1385 0.45752H58.0942L60.5049 8.09671H58.659L58.2099 6.53615H55.9709L55.5239 8.09671H53.7258H53.7278ZM57.8208 5.15119L57.0924 2.63473L56.362 5.15119H57.8188H57.8208ZM67.7849 8.09671H65.5997L63.614 5.29488H62.9695V8.09671H61.1854V0.45752H64.0571C64.4522 0.45752 64.7974 0.483463 65.0908 0.535349C65.3862 0.58923 65.6576 0.698989 65.905 0.86662C66.1624 1.04223 66.364 1.26175 66.5137 1.53116C66.6633 1.79857 66.7392 2.13982 66.7392 2.55491C66.7392 3.13962 66.6174 3.61457 66.372 3.97778C66.1245 4.34297 65.7953 4.63034 65.3842 4.84587L67.7849 8.09472V8.09671ZM64.8992 2.79637C64.8992 2.6048 64.8653 2.43916 64.7955 2.30146C64.7276 2.16377 64.6119 2.056 64.4542 1.98017C64.3405 1.93028 64.2167 1.89835 64.079 1.88438C63.9413 1.87041 63.7717 1.86243 63.5662 1.86243H62.9675V3.91791H63.4803C63.7298 3.91791 63.9413 3.90194 64.1149 3.86802C64.2906 3.83609 64.4362 3.76624 64.558 3.66047C64.6717 3.56468 64.7595 3.45093 64.8154 3.31523C64.8713 3.18153 64.8992 3.00791 64.8992 2.79438V2.79637ZM67.7909 8.09671L70.2016 0.45752H72.1573L74.568 8.09671H72.722L72.273 6.53615H70.0339L69.5869 8.09671H67.7889H67.7909ZM71.8819 5.15119L71.1535 2.63473L70.4231 5.15119H71.8799H71.8819ZM81.4688 8.09671H75.44V6.66586L78.9423 1.91432H75.6216V0.45752H81.2652V1.91432L77.7689 6.63992H81.4688V8.09671ZM87.8627 8.09671H81.834V6.66586L85.3363 1.91432H82.0156V0.45752H87.6592V1.91432L84.1628 6.63992H87.8627V8.09671ZM88.8805 0.411621H90.6286V8.06279H88.8805V0.411621ZM92.267 0.43956H100V5.19709L98.641 3.75826L98.3337 3.43098L98.0263 3.75826L96.348 5.53635L94.564 3.6485L94.2566 3.32122L93.9493 3.6485L92.271 5.42459V0.43956H92.267ZM94.8394 3.00991L95.9948 1.7866L96.3021 1.45932L96.6095 1.7866L97.7869 3.03186L97.1882 3.63054L96.3021 2.6926L95.438 3.60859L94.8394 3.00991ZM100 6.42838V8.17055H92.267V6.65389L94.2526 4.55052L96.0367 6.43836L96.344 6.76564L96.6514 6.43836L98.3297 4.66027L99.998 6.42639L100 6.42838Z" fill="#084CA1"/>
</g>
<defs>
<clipPath id="clip0_81_394">
<rect width="100" height="7.75893" fill="white" transform="translate(0 0.411621)"/>
</clipPath>
</defs>
</svg>
