<svg width="100" height="127" viewBox="0 0 100 127" fill="none" xmlns="http://www.w3.org/2000/svg">
<g clip-path="url(#clip0_81_448)">
<path d="M100 0H0V100H100V0Z" fill="#003A7D"/>
<mask id="mask0_81_448" style="mask-type:luminance" maskUnits="userSpaceOnUse" x="0" y="0" width="100" height="100">
<path d="M100 0H0V100H100V0Z" fill="white"/>
</mask>
<g mask="url(#mask0_81_448)">
<path d="M69.5696 27.3166C69.5696 16.7343 62 11.9495 53.038 11.9495H30.481V19.2153H53.038C58.2532 19.2153 61.7721 22.152 61.7721 27.5191C61.7721 32.8862 58.1772 35.7469 53.038 35.7469H30.4557V63.3672H38.0253V43.0128H49.6456L59.8481 63.3672H68.7342L58.2278 42.3545C65.2152 40.6077 69.5696 35.5444 69.5696 27.3166Z" fill="white"/>
</g>
<mask id="mask1_81_448" style="mask-type:luminance" maskUnits="userSpaceOnUse" x="0" y="0" width="100" height="100">
<path d="M100 0H0V100H100V0Z" fill="white"/>
</mask>
<g mask="url(#mask1_81_448)">
<path d="M17.2405 80.2533L15.5949 76.9368H13.7468V80.2533H11.8987V71.0381H16.1772C17.9241 71.0381 19.3418 72.0001 19.3418 73.9495C19.3418 75.3419 18.7595 76.2026 17.5696 76.6583L19.3418 80.228H17.2405V80.2533ZM16.1519 72.8356H13.7468V75.2153H16.1519C17.0127 75.2153 17.4684 74.8102 17.4684 74.0254C17.4684 73.1647 16.962 72.8356 16.1519 72.8356Z" fill="white"/>
</g>
<mask id="mask2_81_448" style="mask-type:luminance" maskUnits="userSpaceOnUse" x="0" y="0" width="100" height="100">
<path d="M100 0H0V100H100V0Z" fill="white"/>
</mask>
<g mask="url(#mask2_81_448)">
<path d="M21.9493 80.2533V71.0381H28.3544V72.8356H23.7974V74.4305H26.4557V76.228H23.7974V78.4558H28.5569V80.2533H21.9493Z" fill="white"/>
</g>
<mask id="mask3_81_448" style="mask-type:luminance" maskUnits="userSpaceOnUse" x="0" y="0" width="100" height="100">
<path d="M100 0H0V100H100V0Z" fill="white"/>
</mask>
<g mask="url(#mask3_81_448)">
<path d="M35.5949 76.6075V80.2531H33.7468V76.6582L30.2532 71.0632H32.3798L33.6709 73.2404C34 73.7974 34.5063 74.7088 34.6836 75.0379C34.8608 74.6835 35.3418 73.8227 35.6709 73.2404L36.962 71.0632H39.0633L35.5949 76.6075Z" fill="white"/>
</g>
<mask id="mask4_81_448" style="mask-type:luminance" maskUnits="userSpaceOnUse" x="0" y="0" width="100" height="100">
<path d="M100 0H0V100H100V0Z" fill="white"/>
</mask>
<g mask="url(#mask4_81_448)">
<path d="M46.7595 80.2532L43.3671 75.2152C43.1392 74.8608 42.8354 74.4051 42.7342 74.1773C42.7342 74.5317 42.7595 75.6709 42.7595 76.2026V80.2532H40.9367V71.038H42.7089L45.9747 75.8988C46.2025 76.2532 46.5063 76.7089 46.6076 76.9367C46.6076 76.5823 46.5823 75.4431 46.5823 74.9114V71.0127H48.4051V80.2279H46.7595V80.2532Z" fill="white"/>
</g>
<mask id="mask5_81_448" style="mask-type:luminance" maskUnits="userSpaceOnUse" x="0" y="0" width="100" height="100">
<path d="M100 0H0V100H100V0Z" fill="white"/>
</mask>
<g mask="url(#mask5_81_448)">
<path d="M57.2911 80.2533L56.557 78.2026H53.1899L52.4557 80.2533H50.481L54 71.0381H55.7975L59.2911 80.2533H57.2911ZM55.3418 74.7596C55.1646 74.228 54.962 73.671 54.8861 73.3166C54.7848 73.671 54.6076 74.2026 54.4304 74.7596L53.8481 76.4305H55.9494L55.3418 74.7596Z" fill="white"/>
</g>
<mask id="mask6_81_448" style="mask-type:luminance" maskUnits="userSpaceOnUse" x="0" y="0" width="100" height="100">
<path d="M100 0H0V100H100V0Z" fill="white"/>
</mask>
<g mask="url(#mask6_81_448)">
<path d="M61.6962 80.2533V71.0381H68.1013V72.8356H63.5443V74.4305H66.1772V76.228H63.5443V78.4558H68.3038V80.2533H61.6962Z" fill="white"/>
</g>
<mask id="mask7_81_448" style="mask-type:luminance" maskUnits="userSpaceOnUse" x="0" y="0" width="100" height="100">
<path d="M100 0H0V100H100V0Z" fill="white"/>
</mask>
<g mask="url(#mask7_81_448)">
<path d="M76.5316 80.2533L74.8861 76.9368H73.038V80.2533H71.1899V71.0381H75.4937C77.2405 71.0381 78.6582 72.0001 78.6582 73.9495C78.6582 75.3419 78.076 76.2026 76.8861 76.6583L78.6582 80.228H76.5316V80.2533ZM75.4177 72.8356H73.0127V75.2153H75.4177C76.2785 75.2153 76.7342 74.8102 76.7342 74.0254C76.7342 73.1647 76.2532 72.8356 75.4177 72.8356Z" fill="white"/>
</g>
<mask id="mask8_81_448" style="mask-type:luminance" maskUnits="userSpaceOnUse" x="0" y="0" width="100" height="100">
<path d="M100 0H0V100H100V0Z" fill="white"/>
</mask>
<g mask="url(#mask8_81_448)">
<path d="M84.3544 80.3798C82.8101 80.3798 81.4683 79.7469 80.7848 78.7089L82.1266 77.5191C82.7595 78.2786 83.5949 78.5824 84.481 78.5824C85.5696 78.5824 86.0759 78.2786 86.0759 77.5697C86.0759 76.9874 85.7721 76.7089 84.0253 76.3292C82.3291 75.9241 81.1392 75.3925 81.1392 73.5697C81.1392 71.8988 82.6076 70.8608 84.4304 70.8608C85.8734 70.8608 86.9114 71.3925 87.7974 72.3039L86.481 73.595C85.8987 72.9874 85.2405 72.6583 84.3797 72.6583C83.3924 72.6583 83.0633 73.0887 83.0633 73.4937C83.0633 74.076 83.4683 74.2532 84.9114 74.6077C86.3797 74.9621 88 75.4431 88 77.4431C87.9747 79.2153 86.8861 80.3798 84.3544 80.3798Z" fill="white"/>
</g>
<mask id="mask9_81_448" style="mask-type:luminance" maskUnits="userSpaceOnUse" x="0" y="0" width="100" height="100">
<path d="M100 0H0V100H100V0Z" fill="white"/>
</mask>
<g mask="url(#mask9_81_448)">
<path d="M52.1266 87.9748V87.6204C51.8987 87.8482 51.5443 88.0254 51.1899 88.0254C50.6329 88.0254 50 87.7216 50 86.8609C50 86.1014 50.5823 85.747 51.3671 85.747C51.6962 85.747 51.9494 85.7976 52.1266 85.8735V85.6204C52.1266 85.2406 51.8987 85.0381 51.4684 85.0381C51.1139 85.0381 50.8354 85.114 50.557 85.2659L50.3038 84.7596C50.6329 84.5571 51.0127 84.4558 51.4937 84.4558C52.2532 84.4558 52.7848 84.8356 52.7848 85.6204V88.0001H52.1266V87.9748ZM52.1266 86.5064C51.9494 86.4052 51.6962 86.3545 51.3418 86.3545C50.9114 86.3545 50.6329 86.5571 50.6329 86.8609C50.6329 87.19 50.8608 87.4431 51.2911 87.4431C51.6456 87.4431 51.9747 87.2153 52.1266 87.0128V86.5064Z" fill="white"/>
</g>
<mask id="mask10_81_448" style="mask-type:luminance" maskUnits="userSpaceOnUse" x="0" y="0" width="100" height="100">
<path d="M100 0H0V100H100V0Z" fill="white"/>
</mask>
<g mask="url(#mask10_81_448)">
<path d="M54.7089 87.9748V83.5444L55.3924 83.1899V87.9748H54.7089Z" fill="white"/>
</g>
<mask id="mask11_81_448" style="mask-type:luminance" maskUnits="userSpaceOnUse" x="0" y="0" width="100" height="100">
<path d="M100 0H0V100H100V0Z" fill="white"/>
</mask>
<g mask="url(#mask11_81_448)">
<path d="M59.4177 87.9747V87.6456C59.2405 87.8988 58.9114 88.0507 58.557 88.0507C57.7468 88.0507 57.3165 87.519 57.3165 86.5064V84.5317H58V86.481C58 87.1899 58.2532 87.4177 58.7089 87.4177C59.1646 87.4177 59.4177 87.0886 59.4177 86.5317V84.5063H60.1013V87.9494H59.4177V87.9747Z" fill="white"/>
</g>
<mask id="mask12_81_448" style="mask-type:luminance" maskUnits="userSpaceOnUse" x="0" y="0" width="100" height="100">
<path d="M100 0H0V100H100V0Z" fill="white"/>
</mask>
<g mask="url(#mask12_81_448)">
<path d="M66.0506 87.9748V86.0254C66.0506 85.3166 65.8228 85.0887 65.3924 85.0887C64.9367 85.0887 64.7342 85.4178 64.7342 85.9748V88.0001H64.0253V86.0507C64.0253 85.3419 63.7975 85.114 63.3671 85.114C62.9114 85.114 62.7089 85.4432 62.7089 86.0001V88.0254H62.0253V84.5318H62.7089V84.8609C62.8861 84.6077 63.1646 84.4558 63.5443 84.4558C64 84.4558 64.3038 84.633 64.481 84.9621C64.7342 84.6583 65.0127 84.4558 65.5443 84.4558C66.3544 84.4558 66.7342 84.9875 66.7342 86.0001V87.9748H66.0506Z" fill="white"/>
</g>
<mask id="mask13_81_448" style="mask-type:luminance" maskUnits="userSpaceOnUse" x="0" y="0" width="100" height="100">
<path d="M100 0H0V100H100V0Z" fill="white"/>
</mask>
<g mask="url(#mask13_81_448)">
<path d="M68.9873 84.0758C68.7342 84.0758 68.5569 83.8733 68.5569 83.6455C68.5569 83.3923 68.7595 83.2151 68.9873 83.2151C69.2152 83.2151 69.4177 83.4176 69.4177 83.6455C69.4177 83.8733 69.2152 84.0758 68.9873 84.0758ZM68.6329 84.5315H69.3164V87.9746H68.6329V84.5315Z" fill="white"/>
</g>
<mask id="mask14_81_448" style="mask-type:luminance" maskUnits="userSpaceOnUse" x="0" y="0" width="100" height="100">
<path d="M100 0H0V100H100V0Z" fill="white"/>
</mask>
<g mask="url(#mask14_81_448)">
<path d="M73.3671 87.9748V86.0254C73.3671 85.3166 73.1139 85.0887 72.6582 85.0887C72.2025 85.0887 71.9494 85.4178 71.9494 85.9748V88.0001H71.2658V84.5318H71.9494V84.8609C72.1266 84.6077 72.4557 84.4558 72.8101 84.4558C73.6202 84.4558 74.0506 84.9875 74.0506 86.0001V87.9748H73.3671Z" fill="white"/>
</g>
<mask id="mask15_81_448" style="mask-type:luminance" maskUnits="userSpaceOnUse" x="0" y="0" width="100" height="100">
<path d="M100 0H0V100H100V0Z" fill="white"/>
</mask>
<g mask="url(#mask15_81_448)">
<path d="M76.3291 84.0758C76.076 84.0758 75.8987 83.8733 75.8987 83.6455C75.8987 83.3923 76.1013 83.2151 76.3291 83.2151C76.557 83.2151 76.7595 83.4176 76.7595 83.6455C76.7595 83.8733 76.557 84.0758 76.3291 84.0758ZM75.9747 84.5315H76.6582V87.9746H75.9747V84.5315Z" fill="white"/>
</g>
<mask id="mask16_81_448" style="mask-type:luminance" maskUnits="userSpaceOnUse" x="0" y="0" width="100" height="100">
<path d="M100 0H0V100H100V0Z" fill="white"/>
</mask>
<g mask="url(#mask16_81_448)">
<path d="M80.6835 87.9747V87.6456C80.5063 87.8988 80.1772 88.0507 79.8228 88.0507C79.0127 88.0507 78.5823 87.519 78.5823 86.5064V84.5317H79.2658V86.481C79.2658 87.1899 79.519 87.4177 79.9747 87.4177C80.4304 87.4177 80.6835 87.0886 80.6835 86.5317V84.5063H81.3671V87.9494H80.6835V87.9747Z" fill="white"/>
</g>
<mask id="mask17_81_448" style="mask-type:luminance" maskUnits="userSpaceOnUse" x="0" y="0" width="100" height="100">
<path d="M100 0H0V100H100V0Z" fill="white"/>
</mask>
<g mask="url(#mask17_81_448)">
<path d="M87.2911 87.9748V86.0254C87.2911 85.3166 87.0633 85.0887 86.6329 85.0887C86.1772 85.0887 85.9747 85.4178 85.9747 85.9748V88.0001H85.2911V86.0507C85.2911 85.3419 85.0633 85.114 84.6329 85.114C84.1772 85.114 83.9747 85.4432 83.9747 86.0001V88.0254H83.2911V84.5318H83.9747V84.8609C84.1519 84.6077 84.4304 84.4558 84.8101 84.4558C85.2658 84.4558 85.5696 84.633 85.7468 84.9621C86 84.6583 86.2532 84.4558 86.8101 84.4558C87.6203 84.4558 88 84.9875 88 86.0001V87.9748H87.2911Z" fill="white"/>
</g>
<path d="M26.0253 109.772V116H24.9367V109.772H22.8101V108.684H28.1772V109.772H26.0253Z" fill="#003A7D"/>
<path d="M35.1139 112.354C35.1139 112.911 35.038 113.418 34.8861 113.873C34.7342 114.329 34.5317 114.734 34.2532 115.063C33.9747 115.392 33.6709 115.646 33.2658 115.848C32.8861 116.025 32.4557 116.127 31.9747 116.127C31.4937 116.127 31.0633 116.025 30.6836 115.848C30.3038 115.671 29.9747 115.392 29.7215 115.063C29.4431 114.734 29.2405 114.329 29.0886 113.873C28.9367 113.418 28.8608 112.911 28.8608 112.354C28.8608 111.797 28.9367 111.291 29.0886 110.835C29.2405 110.38 29.4431 109.975 29.7215 109.646C30 109.316 30.3038 109.063 30.6836 108.861C31.0633 108.684 31.4937 108.582 31.9747 108.582C32.4557 108.582 32.8861 108.684 33.2658 108.861C33.6456 109.038 33.9747 109.316 34.2532 109.646C34.5317 109.975 34.7342 110.38 34.8861 110.835C35.038 111.291 35.1139 111.797 35.1139 112.354ZM34 112.354C34 111.544 33.8228 110.886 33.4937 110.405C33.1646 109.924 32.6582 109.696 32.0253 109.696C31.3924 109.696 30.8861 109.924 30.557 110.405C30.2279 110.886 30.0507 111.544 30.0507 112.354C30.0507 113.165 30.2279 113.823 30.557 114.304C30.8861 114.785 31.3924 115.013 32.0253 115.013C32.6582 115.013 33.1646 114.785 33.4937 114.304C33.8228 113.823 34 113.19 34 112.354Z" fill="#003A7D"/>
<path d="M42 114.405C41.8734 114.759 41.6709 115.089 41.4177 115.342C41.1645 115.595 40.8861 115.797 40.5316 115.924C40.2025 116.051 39.8228 116.127 39.4177 116.127C38.9367 116.127 38.5063 116.025 38.1266 115.848C37.7468 115.671 37.4177 115.392 37.1645 115.063C36.8861 114.734 36.6835 114.329 36.5316 113.873C36.3797 113.418 36.3038 112.911 36.3038 112.354C36.3038 111.797 36.3797 111.291 36.5316 110.835C36.6835 110.38 36.8861 109.975 37.1645 109.646C37.443 109.316 37.7468 109.063 38.1266 108.861C38.5063 108.684 38.9367 108.582 39.4177 108.582C40.0253 108.582 40.5316 108.709 40.9114 108.937C41.3164 109.165 41.6455 109.519 41.8987 109.949L40.9367 110.557C40.7595 110.253 40.5316 110.051 40.3038 109.899C40.0759 109.772 39.7721 109.696 39.3924 109.696C38.7595 109.696 38.2531 109.924 37.924 110.405C37.5949 110.886 37.4177 111.544 37.4177 112.354C37.4177 113.165 37.5949 113.823 37.924 114.304C38.2531 114.785 38.7595 115.013 39.3924 115.013C39.6962 115.013 39.9493 114.962 40.1519 114.886C40.3544 114.785 40.5316 114.684 40.6582 114.532C40.7848 114.38 40.8861 114.203 40.962 114C41.0126 113.797 41.0633 113.595 41.0633 113.367V113.342H39.8734V112.278H42.1772V113.114C42.2025 113.62 42.1266 114.051 42 114.405Z" fill="#003A7D"/>
<path d="M43.7468 116.025V108.709H48.4557V109.772H44.8354V111.57H46.9367V112.633H44.8354V114.937H48.6076V116H43.7468V116.025Z" fill="#003A7D"/>
<path d="M52.962 109.772V116H51.8734V109.772H49.7468V108.684H55.1139V109.772H52.962Z" fill="#003A7D"/>
<path d="M60.9873 116.025V112.734H57.6202V116.025H56.5316V108.709H57.6202V111.671H60.9873V108.709H62.0759V116.025H60.9873Z" fill="#003A7D"/>
<path d="M64 116.025V108.709H68.7089V109.772H65.0886V111.57H67.1899V112.633H65.0886V114.937H68.8608V116H64V116.025Z" fill="#003A7D"/>
<path d="M75.9746 110.886C75.9746 111.468 75.8227 111.949 75.5443 112.304C75.2658 112.658 74.8607 112.911 74.3544 113.013L75.8481 116H74.5822L73.1392 113.114H71.4936V116H70.405V108.684H73.6202C73.9493 108.684 74.2531 108.734 74.5316 108.81C74.8101 108.886 75.0633 109.038 75.2911 109.215C75.519 109.392 75.6708 109.62 75.7974 109.899C75.924 110.177 75.9746 110.506 75.9746 110.886ZM74.8607 110.911C74.8607 110.532 74.7595 110.228 74.5316 110.025C74.3038 109.823 74 109.722 73.6202 109.722H71.4936V112.076H73.6202C74 112.076 74.2784 111.975 74.5316 111.798C74.7595 111.62 74.8607 111.317 74.8607 110.911Z" fill="#003A7D"/>
<path d="M20.0253 120.228V122.152H22.1266V123.24H20.0253V126.481H18.9367V119.165H23.6456V120.253H20.0253V120.228Z" fill="#003A7D"/>
<path d="M30.5063 122.81C30.5063 123.367 30.4304 123.874 30.2785 124.329C30.1266 124.785 29.9241 125.19 29.6456 125.519C29.3671 125.848 29.0633 126.101 28.6582 126.304C28.2785 126.481 27.8481 126.582 27.3671 126.582C26.8861 126.582 26.4557 126.481 26.076 126.304C25.6962 126.127 25.3671 125.848 25.1139 125.519C24.8355 125.19 24.6329 124.785 24.481 124.329C24.3291 123.874 24.2532 123.367 24.2532 122.81C24.2532 122.253 24.3291 121.747 24.481 121.291C24.6329 120.836 24.8355 120.43 25.1139 120.101C25.3924 119.772 25.6962 119.519 26.076 119.317C26.4557 119.139 26.8861 119.038 27.3671 119.038C27.8481 119.038 28.2785 119.139 28.6582 119.317C29.038 119.494 29.3671 119.772 29.6456 120.101C29.9241 120.43 30.1266 120.836 30.2785 121.291C30.4557 121.747 30.5063 122.253 30.5063 122.81ZM29.3924 122.81C29.3924 122 29.2152 121.342 28.8861 120.861C28.557 120.38 28.0506 120.152 27.4177 120.152C26.7848 120.152 26.2785 120.38 25.9494 120.861C25.6203 121.342 25.443 122 25.443 122.81C25.443 123.62 25.6203 124.279 25.9494 124.76C26.2785 125.241 26.7848 125.468 27.4177 125.468C28.0506 125.468 28.557 125.241 28.8861 124.76C29.2152 124.279 29.3924 123.646 29.3924 122.81Z" fill="#003A7D"/>
<path d="M37.6455 121.342C37.6455 121.924 37.4937 122.405 37.2152 122.76C36.9367 123.114 36.5316 123.367 36.0253 123.469L37.519 126.456H36.2531L34.8101 123.57H33.1645V126.456H32.0759V119.139H35.2911C35.6202 119.139 35.924 119.19 36.2025 119.266C36.481 119.342 36.7342 119.494 36.962 119.671C37.1899 119.848 37.3418 120.076 37.4683 120.355C37.5696 120.633 37.6455 120.962 37.6455 121.342ZM36.5316 121.367C36.5316 120.988 36.4304 120.684 36.2025 120.481C35.9747 120.279 35.6709 120.177 35.2911 120.177H33.1645V122.532H35.2911C35.6709 122.532 35.9493 122.431 36.2025 122.253C36.405 122.051 36.5316 121.772 36.5316 121.367Z" fill="#003A7D"/>
<path d="M47.5696 124.228C47.5696 124.987 47.3418 125.544 46.9114 125.924C46.481 126.304 45.8481 126.481 45.0633 126.481H42.1519V119.165H45.1646C45.7975 119.165 46.3038 119.316 46.6836 119.646C47.0633 119.975 47.2658 120.43 47.2658 121.063C47.2658 121.443 47.1646 121.747 46.9874 121.975C46.8101 122.203 46.5823 122.38 46.3291 122.532C46.481 122.582 46.6329 122.633 46.7595 122.734C46.9114 122.81 47.038 122.937 47.1646 123.063C47.2912 123.19 47.3671 123.367 47.4431 123.57C47.519 123.747 47.5696 123.975 47.5696 124.228ZM46.1519 121.114C46.1519 120.835 46.076 120.608 45.9241 120.43C45.7722 120.253 45.519 120.152 45.1393 120.152H43.1646V122.025H45.1393C45.3165 122.025 45.4684 122 45.595 121.949C45.7215 121.899 45.8228 121.823 45.8988 121.747C45.9747 121.671 46.0253 121.57 46.076 121.443C46.1519 121.342 46.1519 121.24 46.1519 121.114ZM46.4557 124.253C46.4557 123.873 46.3544 123.57 46.1266 123.367C45.8988 123.139 45.595 123.038 45.1646 123.038H43.1899V125.468H45.1393C45.6203 125.468 45.9747 125.367 46.1772 125.139C46.3798 124.911 46.4557 124.608 46.4557 124.253Z" fill="#003A7D"/>
<path d="M49.2152 126.481V119.165H53.9241V120.228H50.3038V122.025H52.4051V123.089H50.3038V125.392H54.076V126.456H49.2152V126.481Z" fill="#003A7D"/>
<path d="M58.4051 120.228V126.456H57.3164V120.228H55.1646V119.139H60.5316V120.228H58.4051Z" fill="#003A7D"/>
<path d="M64.7595 120.228V126.456H63.6709V120.228H61.5443V119.139H66.9114V120.228H64.7595Z" fill="#003A7D"/>
<path d="M68.3291 126.481V119.165H73.038V120.228H69.4177V122.025H71.519V123.089H69.4177V125.392H73.1899V126.456H68.3291V126.481Z" fill="#003A7D"/>
<path d="M80.3038 121.342C80.3038 121.924 80.1519 122.405 79.8734 122.76C79.5949 123.114 79.1899 123.367 78.6836 123.469L80.1772 126.456H78.9114L77.4684 123.57H75.8228V126.456H74.7342V119.139H77.9494C78.2785 119.139 78.5823 119.19 78.8608 119.266C79.1393 119.342 79.3924 119.494 79.6203 119.671C79.8481 119.848 80 120.076 80.1266 120.355C80.2532 120.633 80.3038 120.962 80.3038 121.342ZM79.1899 121.367C79.1899 120.988 79.0886 120.684 78.8608 120.481C78.6329 120.279 78.3291 120.177 77.9494 120.177H75.8228V122.532H77.9494C78.3291 122.532 78.6076 122.431 78.8608 122.253C79.0886 122.051 79.1899 121.772 79.1899 121.367Z" fill="#003A7D"/>
</g>
<defs>
<clipPath id="clip0_81_448">
<rect width="100" height="126.582" fill="white"/>
</clipPath>
</defs>
</svg>
