<?xml version="1.0" encoding="UTF-8"?>
<svg id="Layer_2" data-name="Layer 2" xmlns="http://www.w3.org/2000/svg" xmlns:xlink="http://www.w3.org/1999/xlink" viewBox="0 0 511.7 280.2">
  <defs>
    <style>
      .cls-1 {
        fill: none;
      }

      .cls-1, .cls-2, .cls-3 {
        stroke-width: 0px;
      }

      .cls-2 {
        fill: url(#Dégradé_sans_nom_2);
      }

      .cls-4 {
        clip-path: url(#clippath);
      }

      .cls-3 {
        fill: #004690;
      }
    </style>
    <clipPath id="clippath">
      <rect class="cls-1" width="511.7" height="280.2"/>
    </clipPath>
    <linearGradient id="Dégradé_sans_nom_2" data-name="Dégradé sans nom 2" x1="107.58" y1="113.93" x2="404.81" y2="113.93" gradientUnits="userSpaceOnUse">
      <stop offset=".1" stop-color="#5eb1b4"/>
      <stop offset=".3" stop-color="#2e96d1"/>
      <stop offset=".42" stop-color="#004690"/>
      <stop offset=".55" stop-color="#de003d"/>
      <stop offset=".84" stop-color="#ea7500"/>
    </linearGradient>
  </defs>
  <g id="Calque_1" data-name="Calque 1">
    <g>
      <g class="cls-4">
        <path class="cls-3" d="M73.74,200.24c-5.5-1.67-7.9-2.72-7.9-5.87,0-2.82,3.75-3.82,6.96-3.82,2.81,0,5.82.83,7.87,2.18.49.31,1.08.41,1.64.26.56-.15,1.03-.53,1.28-1.05l.93-1.87c.46-.92.16-2.04-.7-2.61-2.95-1.93-7.14-3.13-10.93-3.13-7.97,0-13.32,4.09-13.32,10.18,0,7.91,6.68,9.91,12.04,11.52,5.61,1.68,8.07,2.77,8.04,6.11,0,3.36-3.95,4.55-7.64,4.55s-7.39-1.89-9.73-4.05c-.47-.43-1.07-.68-1.69-.6-.63.07-1.19.43-1.51.98l-1.08,1.82c-.48.8-.35,1.83.32,2.48,3.47,3.42,8.7,5.55,13.65,5.55,8.35,0,13.96-4.33,13.96-10.75.06-8.16-6.72-10.22-12.18-11.87"/>
        <path class="cls-3" d="M110.52,185.62c-.33-.72-1.05-1.18-1.84-1.18h-2.21c-.8,0-1.52.47-1.85,1.19l-15.56,34.32c-.29.63-.23,1.36.14,1.94.38.58,1.02.93,1.7.93h2.26c.8,0,1.52-.47,1.85-1.19l3.88-8.58h17.47l3.93,8.59c.33.72,1.05,1.18,1.84,1.18h2.26c.69,0,1.33-.35,1.71-.93.37-.58.42-1.31.14-1.94l-15.71-34.32ZM101.61,206.92l5.95-13.19,6.02,13.19h-11.97Z"/>
        <path class="cls-3" d="M136.42,184.44h-2.06c-1.12,0-2.03.91-2.03,2.03v34.32c0,1.12.91,2.03,2.03,2.03h2.06c1.12,0,2.03-.91,2.03-2.03v-34.32c0-1.12-.91-2.03-2.03-2.03"/>
        <path class="cls-3" d="M179.23,184.44h-2.01c-1.12,0-2.03.91-2.03,2.03v24.99l-19.26-26.2c-.38-.52-.99-.83-1.63-.83h-2.41c-1.12,0-2.03.91-2.03,2.03v34.32c0,1.12.91,2.03,2.03,2.03h2.06c1.12,0,2.03-.91,2.03-2.03v-24.98l19.21,26.19c.38.52.99.82,1.64.82h2.41c1.12,0,2.03-.91,2.03-2.03v-34.32c0-1.12-.91-2.03-2.03-2.03"/>
        <path class="cls-3" d="M214.63,184.44h-25.24c-1.12,0-2.03.91-2.03,2.03v2.02c0,1.12.91,2.03,2.03,2.03h9.56v30.27c0,1.12.91,2.03,2.03,2.03h2.06c1.12,0,2.03-.91,2.03-2.03v-30.27h9.56c1.12,0,2.03-.91,2.03-2.03v-2.02c0-1.12-.91-2.03-2.03-2.03"/>
        <path class="cls-3" d="M229.72,203.14h-10.95c-1.12,0-2.03.91-2.03,2.03v1.67c0,1.12.91,2.03,2.03,2.03h10.95c1.12,0,2.03-.91,2.03-2.03v-1.67c0-1.12-.91-2.03-2.03-2.03"/>
        <path class="cls-3" d="M272.36,201.92h-1.87s-.02,0-.03,0h-6.09c-1.12,0-2.03.91-2.03,2.03v2.06c0,1.12.91,2.03,2.03,2.03h4.1v6.27c-2.39,1.64-5.26,2.53-8.18,2.53-7.57,0-13.73-5.94-13.73-13.24s6.16-13.19,13.73-13.19c3.51,0,6.97,1.3,9.5,3.56.41.37.96.56,1.51.51.56-.04,1.07-.31,1.42-.75l1.23-1.52c.68-.85.58-2.08-.24-2.8-3.69-3.23-8.46-5.02-13.41-5.02-10.95,0-19.85,8.62-19.85,19.21s8.86,19.26,19.75,19.26c4.92,0,9.84-1.81,13.5-4.96.45-.38.7-.95.7-1.54v-12.42c0-1.12-.91-2.03-2.03-2.03"/>
        <path class="cls-3" d="M301.13,184.39c-10.92,0-19.8,8.62-19.8,19.21s8.88,19.26,19.8,19.26,19.8-8.64,19.8-19.26-8.88-19.21-19.8-19.21M301.13,216.79c-7.52,0-13.63-5.92-13.63-13.19s6.12-13.14,13.63-13.14,13.63,5.89,13.63,13.14-6.11,13.19-13.63,13.19"/>
        <path class="cls-3" d="M353.43,202.54c2.06-1.78,3.21-4.4,3.21-7.58,0-6.49-4.88-10.52-12.73-10.52h-14.04c-1.12,0-2.03.91-2.03,2.03v34.32c0,1.12.91,2.03,2.03,2.03h14.14c8.99,0,14.35-4.21,14.35-11.26,0-3.99-1.8-7.16-4.93-9.02M343.86,200h-9.9v-9.49h9.9c3.04,0,6.66.81,6.66,4.7,0,3.18-2.24,4.79-6.66,4.79M333.96,206.07h9.9c3.13,0,8.38.68,8.38,5.24s-4.55,5.43-8.38,5.43h-9.9v-10.67Z"/>
        <path class="cls-3" d="M383.26,185.62c-.33-.72-1.05-1.18-1.85-1.18h-2.21c-.8,0-1.52.47-1.85,1.19l-15.56,34.32c-.29.63-.23,1.36.14,1.94.37.58,1.02.93,1.71.93h2.26c.8,0,1.52-.47,1.85-1.19l3.88-8.58h17.46l3.93,8.59c.33.72,1.05,1.18,1.84,1.18h2.26c.69,0,1.34-.35,1.71-.93.37-.58.42-1.31.14-1.94l-15.71-34.32ZM374.35,206.92l5.95-13.19,6.02,13.19h-11.97Z"/>
        <path class="cls-3" d="M409.16,184.44h-2.06c-1.12,0-2.03.91-2.03,2.03v34.32c0,1.12.91,2.03,2.03,2.03h2.06c1.12,0,2.03-.91,2.03-2.03v-34.32c0-1.12-.91-2.03-2.03-2.03"/>
        <path class="cls-3" d="M451.97,184.44h-2.01c-1.12,0-2.03.91-2.03,2.03v24.99l-19.27-26.2c-.38-.52-.99-.83-1.63-.83h-2.41c-1.12,0-2.03.91-2.03,2.03v34.32c0,1.12.91,2.03,2.03,2.03h2.06c1.12,0,2.03-.91,2.03-2.03v-24.98l19.22,26.19c.38.52.99.82,1.63.82h2.41c1.12,0,2.03-.91,2.03-2.03v-34.32c0-1.12-.91-2.03-2.03-2.03"/>
      </g>
      <path class="cls-2" d="M400.9,164.22h-24.44l-.17-.17-21.49-21.26c-.88-.87-2.22-1.13-3.37-.66-1.15.48-1.9,1.6-1.9,2.85v19.34h-6.39v-47.86c0-.85-.35-1.67-.97-2.25l-17.86-16.86c-.58-.54-1.33-.84-2.12-.84h-8.93c-1.7,0-3.09,1.39-3.09,3.09v64.72h-6.34V60.42c0-1.26-.75-2.38-1.92-2.86-1.14-.47-2.52-.18-3.38.69l-29.57,30.01c-.57.58-.89,1.35-.89,2.17v23.18l-12.11-9.04c-1.1-.82-2.71-.79-3.78.07l-27.53,22.07c-.74.59-1.16,1.47-1.16,2.41v35.21h-6.24v-19.41c0-6.82-4.69-14.06-13.38-14.06s-13.38,7.28-13.38,14.13v19.34h-6.31v-13.17c0-5.33-3.67-11-10.48-11s-10.48,5.68-10.48,11.02v13.16h-6.29s0-.58,0-.58c0-2.65-.02-6.05-.02-7.42,0-4.53-4.28-8.51-9.16-8.51s-9.16,3.96-9.16,8.47v8.03h-27.57c-1.7,0-3.09,1.38-3.09,3.09,0,.83.32,1.6.91,2.19.58.58,1.36.91,2.19.91h30.66c.83,0,1.6-.32,2.19-.9.58-.58.91-1.36.91-2.19v-10.57c0-1.14,1.25-2.84,2.97-2.84s2.97,1.55,2.97,2.94c0,.79.03,10.49.03,10.49,0,1.7,1.39,3.08,3.09,3.08h12.46c1.7,0,3.09-1.4,3.09-3.1v-16.25c0-1.67.9-4.83,4.3-4.83s4.3,3.15,4.3,4.82v16.26c0,1.7,1.39,3.09,3.09,3.09h12.49c.81,0,1.61-.32,2.19-.9.58-.58.91-1.37.91-2.19v-22.43c0-2.75,1.5-7.94,7.2-7.94,5.28,0,7.2,4.71,7.2,7.88v22.5c0,1.7,1.39,3.09,3.09,3.09h12.43c1.7,0,3.09-1.39,3.09-3.09v-36.82l.22-.18,24.28-19.47,13.89,10.38v46.09c0,1.7,1.39,3.09,3.09,3.09h12.4c1.7,0,3.09-1.39,3.09-3.09v-38.38c0-.97-.47-1.9-1.24-2.48l-11.16-8.33v-26.53l.17-.17,23.22-23.56v99.46c0,1.7,1.39,3.09,3.09,3.09h12.52c1.7,0,3.09-1.39,3.09-3.09v-64.72h4.61l.17.16,15.82,14.94v49.62c0,1.7,1.39,3.09,3.09,3.09h12.57c1.7,0,3.09-1.39,3.09-3.09v-15.03l17.3,17.11c.58.58,1.36.89,2.17.89h25.71c1.7,0,3.09-1.39,3.09-3.09s-1.39-3.09-3.09-3.09ZM280.48,130.59v33.74h-6.21v-38.38l6.21,4.64Z"/>
    </g>
  </g>
</svg>