<svg width="121" height="53" viewBox="0 0 121 53" fill="none" xmlns="http://www.w3.org/2000/svg">
<path d="M60.64 48.16C59.48 48.16 58.4467 47.9267 57.54 47.46C56.6333 46.98 55.92 46.32 55.4 45.48C54.8933 44.64 54.64 43.6867 54.64 42.62C54.64 41.54 54.8933 40.5867 55.4 39.76C55.92 38.92 56.6333 38.2667 57.54 37.8C58.4467 37.32 59.48 37.08 60.64 37.08C61.7733 37.08 62.76 37.32 63.6 37.8C64.44 38.2667 65.06 38.94 65.46 39.82L63.04 41.12C62.76 40.6133 62.4067 40.24 61.98 40C61.5667 39.76 61.1133 39.64 60.62 39.64C60.0867 39.64 59.6067 39.76 59.18 40C58.7533 40.24 58.4133 40.58 58.16 41.02C57.92 41.46 57.8 41.9933 57.8 42.62C57.8 43.2467 57.92 43.78 58.16 44.22C58.4133 44.66 58.7533 45 59.18 45.24C59.6067 45.48 60.0867 45.6 60.62 45.6C61.1133 45.6 61.5667 45.4867 61.98 45.26C62.4067 45.02 62.76 44.64 63.04 44.12L65.46 45.44C65.06 46.3067 64.44 46.98 63.6 47.46C62.76 47.9267 61.7733 48.16 60.64 48.16ZM73.8564 48V45.9L73.6564 45.44V41.68C73.6564 41.0133 73.4497 40.4933 73.0364 40.12C72.6364 39.7467 72.0164 39.56 71.1764 39.56C70.6031 39.56 70.0364 39.6533 69.4764 39.84C68.9297 40.0133 68.4631 40.2533 68.0764 40.56L66.9564 38.38C67.5431 37.9667 68.2497 37.6467 69.0764 37.42C69.9031 37.1933 70.7431 37.08 71.5964 37.08C73.2364 37.08 74.5097 37.4667 75.4164 38.24C76.3231 39.0133 76.7764 40.22 76.7764 41.86V48H73.8564ZM70.5764 48.16C69.7364 48.16 69.0164 48.02 68.4164 47.74C67.8164 47.4467 67.3564 47.0533 67.0364 46.56C66.7164 46.0667 66.5564 45.5133 66.5564 44.9C66.5564 44.26 66.7097 43.7 67.0164 43.22C67.3364 42.74 67.8364 42.3667 68.5164 42.1C69.1964 41.82 70.0831 41.68 71.1764 41.68H74.0364V43.5H71.5164C70.7831 43.5 70.2764 43.62 69.9964 43.86C69.7297 44.1 69.5964 44.4 69.5964 44.76C69.5964 45.16 69.7497 45.48 70.0564 45.72C70.3764 45.9467 70.8097 46.06 71.3564 46.06C71.8764 46.06 72.3431 45.94 72.7564 45.7C73.1697 45.4467 73.4697 45.08 73.6564 44.6L74.1364 46.04C73.9097 46.7333 73.4964 47.26 72.8964 47.62C72.2964 47.98 71.5231 48.16 70.5764 48.16ZM83.2202 48.16C82.3002 48.16 81.4135 48.0533 80.5602 47.84C79.7202 47.6133 79.0535 47.3333 78.5602 47L79.6002 44.76C80.0935 45.0667 80.6735 45.32 81.3402 45.52C82.0202 45.7067 82.6868 45.8 83.3402 45.8C84.0602 45.8 84.5668 45.7133 84.8602 45.54C85.1668 45.3667 85.3202 45.1267 85.3202 44.82C85.3202 44.5667 85.2002 44.38 84.9602 44.26C84.7335 44.1267 84.4268 44.0267 84.0402 43.96C83.6535 43.8933 83.2268 43.8267 82.7602 43.76C82.3068 43.6933 81.8468 43.6067 81.3802 43.5C80.9135 43.38 80.4868 43.2067 80.1002 42.98C79.7135 42.7533 79.4002 42.4467 79.1602 42.06C78.9335 41.6733 78.8202 41.1733 78.8202 40.56C78.8202 39.88 79.0135 39.28 79.4002 38.76C79.8002 38.24 80.3735 37.8333 81.1202 37.54C81.8668 37.2333 82.7602 37.08 83.8002 37.08C84.5335 37.08 85.2802 37.16 86.0402 37.32C86.8002 37.48 87.4335 37.7133 87.9402 38.02L86.9002 40.24C86.3802 39.9333 85.8535 39.7267 85.3202 39.62C84.8002 39.5 84.2935 39.44 83.8002 39.44C83.1068 39.44 82.6002 39.5333 82.2802 39.72C81.9602 39.9067 81.8002 40.1467 81.8002 40.44C81.8002 40.7067 81.9135 40.9067 82.1402 41.04C82.3802 41.1733 82.6935 41.28 83.0802 41.36C83.4668 41.44 83.8868 41.5133 84.3402 41.58C84.8068 41.6333 85.2735 41.72 85.7402 41.84C86.2068 41.96 86.6268 42.1333 87.0002 42.36C87.3868 42.5733 87.7002 42.8733 87.9402 43.26C88.1802 43.6333 88.3002 44.1267 88.3002 44.74C88.3002 45.4067 88.1002 46 87.7002 46.52C87.3002 47.0267 86.7202 47.4267 85.9602 47.72C85.2135 48.0133 84.3002 48.16 83.2202 48.16ZM96.8252 48V45.9L96.6252 45.44V41.68C96.6252 41.0133 96.4185 40.4933 96.0052 40.12C95.6052 39.7467 94.9852 39.56 94.1452 39.56C93.5718 39.56 93.0052 39.6533 92.4452 39.84C91.8985 40.0133 91.4318 40.2533 91.0452 40.56L89.9252 38.38C90.5118 37.9667 91.2185 37.6467 92.0452 37.42C92.8718 37.1933 93.7118 37.08 94.5652 37.08C96.2052 37.08 97.4785 37.4667 98.3852 38.24C99.2918 39.0133 99.7452 40.22 99.7452 41.86V48H96.8252ZM93.5452 48.16C92.7052 48.16 91.9852 48.02 91.3852 47.74C90.7852 47.4467 90.3252 47.0533 90.0052 46.56C89.6852 46.0667 89.5252 45.5133 89.5252 44.9C89.5252 44.26 89.6785 43.7 89.9852 43.22C90.3052 42.74 90.8052 42.3667 91.4852 42.1C92.1652 41.82 93.0518 41.68 94.1452 41.68H97.0052V43.5H94.4852C93.7518 43.5 93.2452 43.62 92.9652 43.86C92.6985 44.1 92.5652 44.4 92.5652 44.76C92.5652 45.16 92.7185 45.48 93.0252 45.72C93.3452 45.9467 93.7785 46.06 94.3252 46.06C94.8452 46.06 95.3118 45.94 95.7252 45.7C96.1385 45.4467 96.4385 45.08 96.6252 44.6L97.1052 46.04C96.8785 46.7333 96.4652 47.26 95.8652 47.62C95.2652 47.98 94.4918 48.16 93.5452 48.16Z" fill="black"/>
<path d="M102.789 48V34H105.469L111.429 43.88H110.009L115.869 34H118.529L118.569 48H115.529L115.509 38.66H116.069L111.389 46.52H109.929L105.149 38.66H105.829V48H102.789Z" fill="#318DE2"/>
<path d="M27.3438 7.06006C27.041 7.06006 26.7384 7.16794 26.5236 7.38278L5.50766 28.359C5.03891 28.8278 5.03891 29.5704 5.50766 30.0001L8.82797 33.3204C9.06235 33.5548 9.33563 33.6714 9.64813 33.6714C9.96063 33.6714 10.2737 33.5548 10.4691 33.3204L27.3438 16.4839L39.8438 28.9839V44.7264C38.7109 45.117 37.8513 46.0936 37.5778 47.2654H32.8125V31.2498C32.8125 30.5858 32.3047 30.0779 31.6406 30.0779H23.0469C22.3828 30.0779 21.875 30.5858 21.875 31.2498V47.2654H14.8438V36.7186C14.8438 36.0545 14.3359 35.5467 13.6719 35.5467C13.0078 35.5467 12.5 36.0545 12.5 36.7186V39.6093C10.5859 40.0781 9.10187 41.5626 8.71124 43.4767C6.79718 43.8673 5.27359 45.3904 4.8439 47.2654H1.5625C0.898438 47.2654 0.390625 47.7733 0.390625 48.4373C0.390625 49.1014 0.898438 49.6092 1.5625 49.6092H38.6719C39.3359 49.6092 39.8438 49.1014 39.8438 48.4373V48.0467C39.8438 47.3826 40.3516 46.8748 41.0156 46.8748C41.6797 46.8748 42.1875 47.3826 42.1875 48.0467V48.4373C42.1875 49.1014 42.6953 49.6092 43.3594 49.6092H44.5312C45.1953 49.6092 45.7031 49.1014 45.7031 48.4373C45.7031 47.7733 45.1953 47.2654 44.5312 47.2654H44.4534C44.18 46.0936 43.3203 45.117 42.1875 44.7264V31.3276L44.1795 33.3204C44.4139 33.5548 44.6872 33.6714 44.9997 33.6714C45.3122 33.6714 45.6253 33.5548 45.8206 33.3204L49.1409 30.0001C49.6097 29.5314 49.6097 28.7887 49.1409 28.359L28.1639 7.38278C27.9491 7.16794 27.6465 7.06006 27.3438 7.06006ZM27.3438 9.88293L46.6797 29.2189L45.0394 30.8592L28.1639 14.0234C27.9295 13.789 27.6562 13.6717 27.3438 13.6717C27.0312 13.6717 26.758 13.789 26.5236 14.0234L9.64813 30.8592L8.00781 29.2189L27.3438 9.88293ZM25 39.4529C25.6641 39.4529 26.1719 39.9608 26.1719 40.6248C26.1719 41.2889 25.6641 41.7967 25 41.7967C24.3359 41.7967 23.8281 41.2889 23.8281 40.6248C23.8281 39.9608 24.3359 39.4529 25 39.4529ZM12.5 42.0698V47.2654H7.30438C7.73407 46.3279 8.67188 45.7029 9.76562 45.7029C10.4297 45.7029 10.9375 45.1951 10.9375 44.5311C10.9375 43.4373 11.5625 42.4995 12.5 42.0698ZM48.4375 47.2654C48.1267 47.2654 47.8286 47.3889 47.6089 47.6087C47.3891 47.8284 47.2656 48.1265 47.2656 48.4373C47.2656 48.7481 47.3891 49.0462 47.6089 49.266C47.8286 49.4857 48.1267 49.6092 48.4375 49.6092C48.7483 49.6092 49.0464 49.4857 49.2661 49.266C49.4859 49.0462 49.6094 48.7481 49.6094 48.4373C49.6094 48.1265 49.4859 47.8284 49.2661 47.6087C49.0464 47.3889 48.7483 47.2654 48.4375 47.2654Z" fill="#318DE2"/>
</svg>
