<svg xmlns="http://www.w3.org/2000/svg" width="12.001" height="12.001" viewBox="0 0 12.001 12.001"><g transform="translate(-358 -683)"><g transform="translate(287.86 677.568)"><path d="M70.14,14.526V8.247a.44.44,0,0,0,.072-.114,3.213,3.213,0,0,1,3.381-2.684q2.547-.029,5.095-.01a3.29,3.29,0,0,1,3.424,3.331c.039,1.792.035,3.587,0,5.379a3.2,3.2,0,0,1-2.634,3.189,2.2,2.2,0,0,0-.256.092H73.043c-.117-.035-.234-.074-.352-.105a3.222,3.222,0,0,1-2.266-1.916C70.305,15.126,70.234,14.822,70.14,14.526Zm6.03-7.97c-.843,0-1.686-.007-2.528,0a2.2,2.2,0,0,0-2.385,2.4q-.013,2.46,0,4.92a2.185,2.185,0,0,0,2.4,2.43q2.5.029,5.009,0a2.145,2.145,0,0,0,2.345-2.2c.07-1.762.089-3.53.032-5.292A2.182,2.182,0,0,0,78.6,6.557C77.793,6.553,76.982,6.556,76.17,6.557Z"/><path d="M76.121,8.328a3.092,3.092,0,1,1-3.08,3.093A3.1,3.1,0,0,1,76.121,8.328Zm0,1.109a1.964,1.964,0,0,0-1.957,2.011,1.973,1.973,0,1,0,1.957-2.011Z"/><path d="M80.048,8.255a.7.7,0,0,1-.739.673.666.666,0,0,1-.654-.7.678.678,0,0,1,.726-.679A.713.713,0,0,1,80.048,8.255Z"/></g><path d="M360.9,695c-.118-.036-.234-.074-.352-.106a3.219,3.219,0,0,1-2.266-1.915c-.12-.284-.192-.589-.285-.885v-6.278a.448.448,0,0,0,.072-.114,3.214,3.214,0,0,1,3.381-2.684q2.547-.028,5.095-.01a3.29,3.29,0,0,1,3.424,3.331c.04,1.793.036,3.587,0,5.379a3.2,3.2,0,0,1-2.633,3.19,2.076,2.076,0,0,0-.257.093Zm.6-10.874a2.2,2.2,0,0,0-2.385,2.4q-.014,2.46,0,4.919a2.185,2.185,0,0,0,2.4,2.43q2.506.028,5.009,0a2.146,2.146,0,0,0,2.346-2.2c.07-1.762.088-3.53.031-5.292a2.182,2.182,0,0,0-2.437-2.259c-.812,0-1.624,0-2.435,0l-1.539,0C362.162,684.122,361.832,684.123,361.5,684.127Zm2.483,7.953a3.093,3.093,0,1,1,.008,0Zm-1.966-3.064a1.973,1.973,0,1,0,1.969-2.011h-.012A1.965,1.965,0,0,0,362.021,689.017Zm5.149-2.52a.666.666,0,0,1-.653-.7.678.678,0,0,1,.725-.679.713.713,0,0,1,.668.7.7.7,0,0,1-.707.674Z"/></g></svg>