<svg xmlns="http://www.w3.org/2000/svg" width="18" height="18" viewBox="0 0 18 18" fill="none">
  <path d="M9 0C4.03417 0 0 4.03417 0 9C0 10.5962 0.437747 12.0858 1.1678 13.3861L0.0145211 17.5032C-0.00390363 17.5691 -0.00473612 17.6387 0.0121066 17.705C0.0289493 17.7713 0.0628788 17.832 0.110512 17.8811C0.158145 17.9302 0.217818 17.966 0.28358 17.9848C0.349343 18.0037 0.418897 18.005 0.485309 17.9885L4.77819 16.9247C6.03964 17.5981 7.47101 18 9 18C13.9658 18 18 13.9658 18 9C18 4.03417 13.9658 0 9 0ZM9 0.782609C13.5429 0.782609 17.2174 4.45714 17.2174 9C17.2174 13.5429 13.5429 17.2174 9 17.2174C7.54357 17.2174 6.17953 16.8377 4.99372 16.1742C4.90699 16.1257 4.80507 16.112 4.70864 16.136L0.949219 17.0676L1.95729 13.471C1.97171 13.4201 1.97569 13.3669 1.96899 13.3145C1.9623 13.2621 1.94505 13.2116 1.91831 13.166C1.19766 11.944 0.782609 10.5222 0.782609 9C0.782609 4.45714 4.45714 0.782609 9 0.782609ZM5.7297 4.30435C5.47886 4.30435 5.12063 4.39767 4.82634 4.71476C4.64958 4.90521 3.91304 5.62285 3.91304 6.88451C3.91304 8.19989 4.82533 9.3349 4.93563 9.48072H4.9364V9.48149C4.92593 9.46774 5.0764 9.68564 5.27726 9.94693C5.47811 10.2082 5.75898 10.5514 6.11184 10.9229C6.81754 11.6659 7.80976 12.5246 9.04127 13.0498C9.6084 13.2913 10.0558 13.4372 10.3948 13.5436C11.023 13.7408 11.5952 13.7108 12.025 13.6475C12.3467 13.6001 12.7005 13.4457 13.0506 13.2241C13.4007 13.0025 13.7438 12.7271 13.8951 12.3085C14.0035 12.0084 14.0586 11.7311 14.0785 11.503C14.0885 11.3889 14.0898 11.2882 14.0824 11.195C14.0749 11.1018 14.0829 11.0303 13.996 10.8877C13.8138 10.5886 13.6075 10.5808 13.3922 10.4743C13.2726 10.4151 12.9321 10.2488 12.5905 10.086C12.2493 9.92345 11.9539 9.77946 11.772 9.71459C11.6571 9.67323 11.5167 9.6137 11.3142 9.63663C11.1117 9.65956 10.9117 9.80567 10.7953 9.97826C10.6849 10.1419 10.2406 10.6663 10.1051 10.8205C10.1033 10.8194 10.1151 10.8248 10.0616 10.7983C9.89404 10.7154 9.68915 10.6449 9.38595 10.485C9.08276 10.325 8.70349 10.0889 8.28847 9.723V9.72223C7.67075 9.17841 7.23806 8.49565 7.10156 8.2663C7.11076 8.25536 7.10047 8.26861 7.1199 8.24949L7.12067 8.24873C7.26017 8.11132 7.38381 7.9472 7.48828 7.82685C7.6364 7.65621 7.70177 7.50578 7.77259 7.36523C7.91372 7.08513 7.83514 6.7769 7.75348 6.61472V6.61396C7.75912 6.62518 7.70931 6.51528 7.65566 6.3885C7.60185 6.26136 7.53326 6.09654 7.46 5.92077C7.31349 5.56924 7.14992 5.17497 7.05265 4.94404V4.94327C6.93806 4.67127 6.78302 4.47531 6.58033 4.38077C6.37764 4.28624 6.19857 4.31311 6.19132 4.31275H6.19056C6.04591 4.30608 5.88719 4.30435 5.7297 4.30435ZM5.7297 5.08696C5.88057 5.08696 6.0293 5.0888 6.15387 5.0946C6.28202 5.10099 6.27405 5.10151 6.24941 5.09001C6.22437 5.07834 6.25834 5.07455 6.33118 5.24745C6.42643 5.47357 6.59081 5.86927 6.73777 6.22189C6.81125 6.3982 6.88003 6.56367 6.93495 6.69344C6.98988 6.82322 7.01964 6.89568 7.05418 6.96476V6.96552L7.05494 6.96629C7.08881 7.0331 7.08581 6.99032 7.07405 7.01367C6.99147 7.17756 6.98027 7.2178 6.89674 7.31403C6.76956 7.46055 6.63983 7.62394 6.57116 7.69158C6.51108 7.75059 6.40269 7.84253 6.335 8.0225C6.26722 8.20275 6.29885 8.45005 6.40761 8.63468C6.5524 8.8805 7.02955 9.65712 7.77106 10.31C8.23804 10.7216 8.67309 10.9941 9.02063 11.1774C9.36818 11.3607 9.65125 11.4678 9.71459 11.4992C9.865 11.5736 10.0294 11.6314 10.2205 11.6084C10.4117 11.5855 10.5765 11.4695 10.6814 11.3509L10.6821 11.3501C10.8218 11.1918 11.2366 10.7181 11.4357 10.4261C11.4442 10.4291 11.4414 10.4268 11.5076 10.4506V10.4513H11.5083C11.5385 10.4621 11.9169 10.6315 12.2542 10.7922C12.5916 10.953 12.934 11.12 13.0453 11.1751C13.2058 11.2546 13.2817 11.3063 13.3013 11.3066C13.3026 11.341 13.304 11.3783 13.299 11.435C13.2853 11.5921 13.2433 11.8097 13.1591 12.0425C13.1179 12.1566 12.9033 12.3917 12.6326 12.563C12.3618 12.7343 12.0323 12.8553 11.9103 12.8733C11.5434 12.9274 11.1078 12.9471 10.6294 12.7969C10.2977 12.6928 9.88408 12.558 9.34851 12.3299C8.26232 11.8667 7.33914 11.0784 6.67969 10.3841C6.34996 10.0369 6.08578 9.71375 5.89784 9.46926C5.71025 9.22523 5.62834 9.09824 5.56004 9.00841L5.55927 9.00764C5.43804 8.84731 4.69565 7.81468 4.69565 6.88451C4.69565 5.90008 5.15289 5.51404 5.40031 5.24745C5.5302 5.1075 5.6722 5.08696 5.7297 5.08696Z" fill="white"/>
</svg>